<?xml version="1.0" encoding="UTF-8"?><svg id="a" xmlns="http://www.w3.org/2000/svg" viewBox="0 0 32 32"><circle cx="16" cy="16" r="16" fill="#f9f4ef"/><path d="M9.2,7.79c.12,.32,.18,.52,.19,.61,.02,.12-.03,.22-.14,.29-.09,.06-.19,.08-.28,.05-.31-.13-.63-.3-.96-.53-.08-.06-.18-.12-.28-.19-.06-.04-.11-.08-.16-.11,.01,.15,.04,.34,.07,.57,.05,.35,.09,.66,.1,.91-.02,.17-.08,.28-.18,.34-.03,.02-.07,.03-.12,.03-.18,0-.48-.21-1.14-1.08l-.03-.03s-.08-.1-.14-.18c-.06-.08-.13-.17-.2-.26-.08-.1-.38-.49-.92-1.2-.06-.1-.08-.2-.06-.31,.02-.12,.08-.2,.16-.26,.07-.04,.2-.09,.37,.07,.64,.87,1.16,1.53,1.55,2-.01-.07-.02-.15-.04-.24-.05-.33-.08-.61-.09-.83,0-.26,.05-.42,.17-.49,.06-.04,.16-.07,.3,0,.45,.36,.81,.62,1.09,.79,0-.02-.02-.04-.02-.07l-.13-.36s-.02-.04-.04-.1c-.01-.04-.03-.08-.04-.11-.02-.04-.03-.08-.05-.12l-.14-.35c-.22-.53-.42-.98-.6-1.31-.04-.1-.04-.19,0-.29,.03-.1,.08-.17,.16-.22,.07-.04,.2-.09,.37,.07l.02,.03c.19,.35,.32,.61,.39,.77,.07,.16,.12,.29,.17,.41,.05,.12,.09,.2,.11,.24,.02,.04,.06,.14,.11,.28,.05,.14,.11,.28,.16,.42,.05,.14,.08,.22,.09,.25l.19,.51Zm2.62-1.63l.47,1.26c.02,.06,.01,.12-.01,.17-.04,.08-.14,.14-.3,.19l-.07,.02c-.1,.03-.18,0-.23-.05-.03-.03-.05-.07-.06-.11-.13,.16-.32,.28-.55,.35-.1,.03-.19,.04-.28,.04-.13,0-.25-.03-.36-.09-.29-.15-.5-.49-.66-1.02-.14-.48-.16-.88-.05-1.18,.11-.32,.35-.54,.71-.64,.14-.04,.29-.06,.44-.06h0c.05-.08,.12-.13,.21-.16,.16-.05,.38-.01,.51,.42l.14,.5c.03,.12,.07,.25,.11,.37Zm-1.13-.39c-.19,.06-.3,.14-.36,.27-.06,.13-.04,.35,.05,.66,.08,.26,.17,.45,.28,.55,.09,.09,.19,.12,.3,.08,.06-.02,.12-.07,.18-.15,.06-.09,.1-.17,.11-.25,0-.21-.02-.43-.09-.66-.07-.22-.14-.38-.22-.46-.06-.06-.14-.08-.24-.05Zm3.42-1.36l-.58,.08c-.06-.63-.1-1.04-.1-1.12,0-.11-.04-.18-.1-.24-.06-.05-.13-.07-.22-.07-.08,0-.16,.04-.23,.12-.08,.07-.12,.16-.12,.27l.1,1.11h0l-.3,.02h0c-.14,.01-.25,.06-.32,.14-.06,.08-.09,.18-.08,.3,0,.08,.04,.14,.1,.19,.08,.07,.21,.1,.39,.08,.09,0,.21-.02,.31-.03,.11,.85,.23,1.53,.35,2.02,.03,.13,.13,.21,.25,.21,.01,0,.02,0,.03,0,.1,0,.18-.03,.25-.07,.06-.03,.09-.09,.11-.16,0-.04,.01-.11-.04-.32-.03-.13-.09-.43-.17-.91-.06-.38-.11-.66-.13-.84l.25-.02c.07,0,.13-.02,.21-.03,.09-.01,.18-.06,.25-.13,.05-.06,.12-.16,.1-.32,0-.1-.05-.18-.11-.23-.05-.04-.13-.06-.21-.05Zm2.89,.3c-.13-.07-.3-.11-.52-.14-.22-.02-.45,.01-.7,.1-.24,.09-.46,.25-.63,.47h0c-.17,.22-.28,.47-.31,.75-.05,.45,.02,.82,.18,1.11,.17,.3,.43,.46,.78,.5,.04,0,.07,0,.11,0,.13,0,.26-.02,.42-.06,.2-.05,.36-.13,.5-.23,.16-.11,.24-.23,.26-.36,0-.07-.01-.14-.06-.2-.05-.06-.11-.09-.19-.1-.05,0-.14,0-.45,.12-.27,.1-.37,.1-.42,.1-.18-.02-.29-.08-.35-.19-.06-.12-.08-.32-.06-.57,.03-.25,.11-.44,.27-.57,.16-.13,.33-.19,.53-.17,0,0,.04,0,.2,.08,.17,.08,.22,.1,.26,.1,.08,0,.19-.01,.29-.15,.06-.09,.1-.19,.11-.28,.01-.09-.02-.21-.22-.32Zm2.32,.5c-.16-.05-.33-.07-.5-.06,.03-.12,.08-.26,.13-.45,.08-.27,.14-.51,.18-.7,.06-.31-.06-.42-.17-.46-.1-.03-.19-.03-.28,.01-.1,.04-.16,.12-.2,.23-.16,.5-.32,1.05-.47,1.65-.15,.59-.31,1.23-.5,1.9-.03,.09-.03,.18-.02,.27,.02,.14,.1,.2,.16,.22,.13,.04,.23,.04,.31,0,.07-.03,.12-.09,.16-.17,.03-.04,.07-.11,.13-.31l.39-1.35c.04-.13,.13-.25,.45-.14,.14,.04,.21,.11,.24,.21,.03,.12,.02,.26-.03,.44-.06,.19-.1,.33-.12,.41l-.36,.97c-.05,.17,0,.3,.17,.35,.05,.01,.09,.02,.14,.02,.04,0,.09,0,.13-.02,.1-.03,.18-.1,.22-.2,.03-.07,.09-.22,.19-.46,.1-.24,.17-.42,.21-.53,.12-.36,.17-.65,.18-.9,0-.47-.23-.79-.72-.95Zm5.69,3.83s.15-.09,.39-.23c.21-.13,.35-.21,.44-.24,.12-.05,.19-.09,.23-.14,.05-.06,.07-.13,.06-.2-.01-.07-.05-.13-.1-.17-.25-.21-.77-.03-1.68,.59-.3,.21-.61,.43-.91,.65l-.09,.06c.13-.42,.32-1.01,.55-1.79l.21-.7c.02-.16-.05-.25-.11-.3-.08-.06-.18-.09-.29-.09-.11,0-.2,.05-.26,.12-.05,.06-.08,.12-.1,.19-.01,.05-.05,.19-.12,.41-.18,.64-.33,1.16-.46,1.58-.12,.4-.28,.85-.46,1.32h0c-.07,.18,0,.28,.05,.33,.07,.06,.15,.09,.24,.1,.01,0,.02,0,.03,0,.08,0,.15-.02,.22-.06,.32-.19,.74-.46,1.3-.84,.69-.47,.83-.56,.85-.57Zm1.6,1.14s.03,0,.05,0c.11,0,.19-.03,.26-.08,.08-.06,.13-.15,.15-.27,.02-.12,0-.22-.06-.3l-.02-.02c-.18-.2-.38-.22-.58-.07-.1,.08-.16,.17-.18,.29-.02,.12,0,.22,.07,.3s.16,.13,.3,.14Zm-.57,.58s.1-.08,.17-.15c.09-.1,.2-.3-.01-.57-.08-.11-.2-.14-.31-.07-.16,.11-.3,.21-.41,.29-.1,.08-.55,.46-1.61,1.35-.12,.1-.13,.23-.04,.36,.06,.07,.14,.12,.24,.14,.03,0,.05,0,.08,0,.08,0,.15-.02,.21-.07l1.37-1.07,.31-.21Zm.92,3.12c-.44,.27-.84,.49-1.22,.69-.04,.02-.09,.03-.13,.03-.02,0-.05,0-.07-.01-.09-.03-.16-.1-.22-.22-.03-.06-.08-.18,.04-.31-.15-.1-.27-.23-.36-.41-.16-.29-.17-.59-.05-.88,.12-.29,.33-.52,.64-.68,.3-.16,.62-.25,.94-.27,.34-.02,.64,.08,.9,.29,.16,.13,.28,.27,.36,.43,.01,.02,.02,.04,.03,.06l.91-.49c.14-.08,.26-.1,.36-.07,.07,.02,.13,.07,.17,.14,.09,.17,.06,.32-.08,.42-.03,.03-.18,.11-.82,.47-.52,.29-.97,.55-1.39,.8Zm.08-1.16s-.05-.07-.14-.13c-.07-.05-.15-.07-.26-.08-.02,0-.04,0-.06,0-.21,0-.4,.05-.57,.14-.19,.1-.32,.22-.4,.35-.07,.12-.07,.23,0,.35,.06,.12,.17,.18,.33,.18,.17,.01,.38-.05,.59-.16,.33-.18,.43-.26,.46-.29,.05-.06,.09-.11,.1-.15,.01-.03,.02-.06,.01-.09-.01-.04-.03-.08-.06-.13Zm-.62,3.87c-.12-.09-.24-.2-.35-.34-.11-.14-.19-.29-.22-.43-.11-.38,.05-.72,.47-1.03,.24-.18,.53-.32,.86-.41,.34-.1,.65-.1,.94,0,.31,.09,.51,.32,.61,.68,.06,.22,.06,.45-.01,.69-.08,.25-.22,.41-.43,.47-.2,.06-.42,.03-.64-.09-.23-.11-.4-.3-.51-.56-.04-.09-.08-.21-.13-.37-.27,.13-.37,.25-.41,.32-.02,.03-.03,.05-.01,.1,.06,.21,.17,.36,.35,.47,.23,.14,.34,.24,.37,.34,.02,.06,0,.13-.05,.24-.05,.11-.12,.17-.2,.19-.02,0-.05,0-.07,0-.13,0-.3-.08-.55-.26Zm1.48-1.11c.05,.03,.1,.03,.16,.02,.06-.02,.08-.05,.09-.07,.01-.03,.02-.09-.01-.19-.03-.11-.12-.18-.28-.23-.02,0-.08-.02-.25,0,.11,.31,.22,.43,.29,.48Zm1.41,2.8c.02,.32-.11,.6-.4,.82-.28,.21-.62,.34-1.02,.36-.05,0-.1,0-.15,0-.34,0-.64-.08-.9-.24-.31-.19-.48-.46-.5-.8-.02-.35,.11-.64,.4-.87,.28-.22,.6-.34,.96-.37,.45-.03,.82,.04,1.11,.21,.32,.19,.49,.48,.52,.88Zm-1.54,.5c.86-.06,.84-.41,.83-.53h0c0-.13-.08-.23-.23-.3-.14-.07-.29-.11-.44-.11-.02,0-.04,0-.06,0-.28,.02-.48,.08-.61,.2-.12,.11-.18,.22-.17,.33,.01,.22,.11,.35,.3,.4,.1,.02,.23,.03,.39,.02Zm-3.73,7.35l-2.86,.25c3.74-3.42,4.27-9.22,1.07-13.25-3.34-4.22-9.49-4.93-13.71-1.59-.18,.14-.21,.41-.07,.6,.15,.18,.41,.21,.6,.07,3.85-3.05,9.46-2.4,12.51,1.45,2.99,3.77,2.42,9.23-1.23,12.32l.36-2.96c.03-.23-.14-.44-.37-.47-.23-.03-.44,.14-.47,.37l-.48,3.96c-.02,.13,.03,.25,.12,.35,.08,.08,.19,.13,.3,.13,.01,0,.02,0,.04,0l4.26-.38c.23-.02,.41-.23,.38-.46-.02-.23-.22-.4-.46-.39Z" fill="#7c49cc"/></svg>