<svg width="236" height="41" viewBox="0 0 236 41" fill="none" xmlns="http://www.w3.org/2000/svg">
<path fill-rule="evenodd" clip-rule="evenodd" d="M156.303 14.3276H152V12.1332C152 11.5408 152.234 10.9729 152.65 10.556C153.065 10.1392 153.628 9.90794 154.213 9.91379H156.38V7.01097C156.38 2.81035 159.928 0.5 163.877 0.5C165.338 0.514908 166.783 0.816169 168.13 1.38715L166.252 5.73511C165.692 5.40761 165.062 5.22158 164.416 5.19279C163.264 5.19279 162.249 5.86364 162.249 7.55329V9.91066H167.71V14.3245H162.231V31.5251H156.309L156.303 14.3276ZM141.869 3.17089V27.2242H141.879C141.879 31.0267 144.092 31.9577 146.785 31.9577C148.219 31.929 149.648 31.7844 151.06 31.5251V27.0894C150.538 27.1659 150.011 27.2098 149.484 27.2211C148.333 27.2211 147.605 26.7853 147.605 25.7696V0.954592H144.061C143.48 0.95376 142.923 1.18689 142.511 1.60262C142.1 2.01835 141.869 2.58255 141.869 3.17089ZM134.673 0.970303H133.032V0.957764C131.824 0.957764 130.844 1.95004 130.844 3.17406V3.61921C130.844 4.84324 131.824 5.83551 133.032 5.83551H134.673C135.254 5.83634 135.811 5.60311 136.221 5.18729C136.632 4.77147 136.862 4.20726 136.861 3.61921V3.1866C136.862 2.59855 136.632 2.03434 136.221 1.61852C135.811 1.2027 135.254 0.969469 134.673 0.970303ZM58.308 9.9106H54.5749H54.5718C53.9906 9.90977 53.4329 10.1428 53.0213 10.5584C52.6097 10.9741 52.378 11.5383 52.3772 12.1269V40.4874H58.3111V29.3683C59.961 31.2272 62.4002 31.9639 64.9137 31.9639C71.5193 31.9639 75.0666 26.7476 75.0666 20.71C75.0666 14.7351 71.5069 9.45605 65.0065 9.45605C62.5611 9.45605 59.9548 10.2147 58.308 12.0736V9.9106ZM63.5716 14.3245C67.5151 14.3245 69.2795 17.1144 69.2795 20.7069C69.2795 24.2994 67.5213 27.1771 63.5716 27.1771C59.6218 27.1771 57.7893 24.3433 57.7893 20.7069C57.7893 17.0705 59.628 14.3245 63.5716 14.3245ZM78.3424 22.9013V12.127C78.3432 11.5367 78.5761 10.9711 78.9897 10.5552C79.4033 10.1393 79.9635 9.90734 80.5463 9.91068H84.0194V22.221C84.0194 25.0423 85.5671 27.0894 88.5077 27.0894C91.727 27.0894 93.7947 25.4906 93.7947 21.7226V12.1301C93.7964 10.9056 94.7771 9.91381 95.9863 9.91381H99.4841V31.5282H93.7823V28.9953C91.9034 31.1395 89.1763 31.9608 86.8486 31.9608C80.6887 31.9608 78.3362 27.4154 78.3362 22.895L78.3424 22.9013ZM110.042 9.9232H106.309V9.91066C105.1 9.91066 104.119 10.9024 104.118 12.127V40.5H110.042V29.3809C111.692 31.2398 114.131 31.9765 116.645 31.9765C123.247 31.9765 126.798 26.7602 126.798 20.7226C126.798 14.7476 123.238 9.46865 116.738 9.46865C114.295 9.46865 111.683 10.2273 110.042 12.0862V9.9232ZM121.012 20.7147C121.01 17.1245 119.246 14.3369 115.301 14.3369C111.354 14.3369 109.522 17.083 109.522 20.7194C109.522 24.3557 111.354 27.1896 115.301 27.1896C119.246 27.1896 121.01 24.3081 121.012 20.7147ZM133.166 9.91378H136.71V31.5282H131.002V12.1269C131.004 10.9121 131.97 9.92437 133.169 9.91064L133.166 9.91378ZM175.618 0.957799H173.987C173.405 0.954458 172.845 1.18658 172.433 1.60268C172.02 2.01877 171.788 2.58441 171.789 3.1741V3.6067C171.788 4.19476 172.019 4.75897 172.429 5.17478C172.84 5.5906 173.397 5.82384 173.978 5.823H175.618C176.827 5.823 177.807 4.83073 177.807 3.6067V3.1741C177.807 1.95007 176.827 0.957799 175.618 0.957799ZM174.121 9.91378H177.662V31.5282H171.936V12.1269C171.938 10.9024 172.918 9.91064 174.127 9.91064L174.121 9.91378ZM188.607 9.91379H185.202L185.208 9.91066C184 9.91238 183.021 10.9036 183.02 12.127V31.5251H188.576V22.3934C188.576 16.8981 191.362 14.6066 194.033 14.6348C194.938 14.6346 195.825 14.8886 196.596 15.3683L199.206 11.0423C198.076 9.97649 196.451 9.47492 194.903 9.47492C192.272 9.47492 189.616 10.9326 188.607 13.5502V9.91379ZM199.967 25.3746L203.233 24.0423C203.852 25.6097 205.115 27.5909 208.238 27.5909C210.894 27.5909 212.045 26.1615 212.045 25.0204C212.045 23.5356 210.079 23.0648 207.752 22.5075C204.381 21.7 200.252 20.7112 200.252 16.1928C200.252 11.6254 204.437 9.4624 208.972 9.4624C212.33 9.4624 215.023 10.685 216.865 12.779C217.136 13.0877 217.25 13.506 217.175 13.9119C217.1 14.3178 216.844 14.6657 216.481 14.8543L213.448 16.3778C212.649 15.0361 211.333 13.6285 208.804 13.6285C206.925 13.6285 205.771 14.4749 205.771 15.4906C205.771 16.7669 207.593 17.2468 209.813 17.8317C213.276 18.7437 217.707 19.9109 217.707 24.7508C217.707 29.7477 212.983 31.9608 208.544 31.9608C204.325 31.9608 200.961 29.9671 199.36 27.3057C199.16 26.9725 199.114 26.5674 199.233 26.1968C199.353 25.8261 199.627 25.5269 199.982 25.3778L199.967 25.3746ZM224.019 14.3244V25.5532C224.019 29.4905 226.768 31.9576 231.349 31.9576C232.799 31.9584 234.241 31.7397 235.627 31.3087V26.5281C234.595 26.9977 233.485 27.2617 232.355 27.3055C230.85 27.3055 229.745 26.7005 229.745 24.6222V14.3244H235.627V9.91056H229.745V0.766357L225.102 3.87608C224.483 4.28624 224.112 4.98845 224.121 5.73814V9.91369H222.434C221.225 9.91369 220.244 10.9055 220.242 12.13V14.3244H224.019ZM21.4565 15.5063C23.7714 15.5057 25.8587 16.9173 26.7452 19.083C27.6319 21.2492 27.1424 23.743 25.5051 25.4011C23.8678 27.0593 21.4053 27.555 19.2664 26.657C17.1274 25.7591 15.7334 23.6444 15.7346 21.2995C15.7346 19.7625 16.3377 18.2885 17.4112 17.202C18.4842 16.1159 19.9394 15.5059 21.4565 15.5063ZM21.4543 4.01724C29.7098 4.01724 36.9407 11.4781 40.9245 16.594H40.9183C43.0647 19.3489 43.0673 23.2344 40.9245 25.9922C36.9314 31.1113 29.7067 38.5721 21.4543 38.5721C19.4933 38.5518 17.5532 38.1605 15.734 37.4185V31.3276C20.2302 33.9641 25.9148 33.2111 29.5902 29.4923C33.2656 25.7734 34.0142 20.0172 31.4149 15.4615C28.8156 10.9057 23.5174 8.68786 18.5004 10.0555C13.4835 11.4231 10.0005 16.0346 10.0106 21.2962V34.1176C6.72014 31.6411 3.95593 28.5282 1.98415 25.9984C-0.163661 23.2409 -0.163661 19.3515 1.98415 16.594C5.97724 11.4781 13.1989 4.01724 21.4543 4.01724Z" fill="#42168B"/>
</svg>
