<svg id="Layer_1" data-name="Layer 1" xmlns="http://www.w3.org/2000/svg" viewBox="0 0 789.18 268.14"><path id="Union_1" data-name="Union 1" d="M194.06,267.58a41.54,41.54,0,0,1-15.91-3.16,23,23,0,0,1-2.26-1,38.54,38.54,0,0,1-7.94-5.17c-10.08-8-24.26-25.1-26.1-58.65C140.5,184.39,153.25,171,170,171h17.88c19.85,0,35.95-15,36.2-33.52s-15.76-34.06-35.61-34.37a40,40,0,0,0-4.77.25,48.37,48.37,0,0,1-7.45,22.3,39.17,39.17,0,0,0,1.77-22c-.12-.58-.26-1.15-.39-1.73l-.06-.17c-.17-.68-.34-1.34-.56-2s-.35-1.13-.55-1.67c-.25-.7-.52-1.39-.81-2.08-.22-.53-.46-1.07-.7-1.61s-.68-1.34-1-2c-.28-.49-.54-1-.84-1.48-.41-.69-.85-1.33-1.29-2-.3-.44-.58-.88-.9-1.31-.55-.75-1.14-1.47-1.73-2.17-.25-.3-.49-.62-.75-.92a38.71,38.71,0,0,0-2.75-2.84c-.28-.26-.56-.5-.85-.74-.72-.63-1.43-1.27-2.19-1.87-.41-.32-.83-.61-1.25-.91-.68-.5-1.35-1-2.05-1.45-.47-.3-.95-.58-1.43-.87-.69-.41-1.39-.81-2.1-1.19-.51-.26-1-.53-1.55-.77q-1.08-.53-2.19-1c-.56-.24-1.09-.44-1.64-.65-.77-.28-1.54-.56-2.33-.8-.55-.18-1.11-.36-1.66-.51-.84-.23-1.67-.43-2.52-.6-.54-.13-1.08-.27-1.63-.36-.95-.17-1.9-.29-2.86-.41-.48-.06-1-.14-1.43-.18-1.45-.13-2.92-.21-4.4-.21s-2.83.09-4.24.2c-.44,0-.88.11-1.32.16-1,.11-1.9.24-2.82.4-.5.08-1,.18-1.47.28-.9.18-1.78.4-2.64.63l-1.39.37c-1.08.32-2.11.69-3.14,1.07-.45.17-.87.35-1.3.53-1,.38-1.88.81-2.79,1.25-.54.28-1.06.56-1.58.85l-1.78,1c-.59.35-1.13.71-1.67,1.08s-1,.66-1.43,1-1.17.84-1.74,1.29c-.32.25-.6.53-.92.79a49.54,49.54,0,0,0-3.87,3.66,3.84,3.84,0,0,1-.28.3c-.62.66-1.19,1.37-1.76,2.08l-.56.7c-.55.72-1.09,1.46-1.59,2.23-.14.2-.28.41-.4.62a40.39,40.39,0,0,0-4.24,8.56,56.89,56.89,0,0,1,21,23.63h0a36,36,0,0,0-25-18l-.24,0c-1-.18-1.95-.32-3-.43l-.84-.08c-1.09-.08-2.18-.16-3.29-.16-.58,0-1.13.06-1.69.09s-1.35,0-2,.09c-.39,0-.75.11-1.13.15-.84.11-1.67.21-2.48.36-.47.1-.91.24-1.39.33-.7.17-1.4.32-2.09.51-.44.14-.85.3-1.28.44-.69.24-1.39.44-2,.7-.47.19-.91.42-1.36.62-.61.26-1.22.52-1.81.81s-.93.54-1.4.8-1.08.59-1.59.91-.88.62-1.3.92-1,.68-1.48,1-.78.67-1.18,1-1,.77-1.39,1.19-.74.75-1.11,1.14-.84.83-1.23,1.27-.66.83-1,1.26-.75.88-1.08,1.35-.57.91-.87,1.37-.65,1-.94,1.44-.5,1-.74,1.45-.54,1-.77,1.53-.4,1-.6,1.5-.43,1.07-.63,1.62-.27,1.06-.42,1.59-.33,1.11-.46,1.66-.18,1.12-.28,1.66-.2,1.14-.28,1.72,0,1.13-.08,1.69S43,136.41,43,137v.13c0,.46,0,.93.08,1.39,0,.67,0,1.36.12,2a5,5,0,0,0,.1.66c2.22,16.75,17.43,29.74,35.9,29.74H97.1c16.72,0,29.47,13.45,28.12,28.62-1.86,33.55-16,50.65-26.11,58.66a39.4,39.4,0,0,1-7.93,5.16,22,22,0,0,1-2.27,1A41.54,41.54,0,0,1,73,267.57H46.91A46.81,46.81,0,0,1,.14,220.78V47.56A46.8,46.8,0,0,1,46.94.76H220.16A46.82,46.82,0,0,1,267,47.56V220.78a46.8,46.8,0,0,1-46.8,46.8Zm364.11-15.13a51.4,51.4,0,0,1,0-71.17,49.11,49.11,0,0,1,70,0,51.61,51.61,0,0,1,0,71.17,49.11,49.11,0,0,1-70,0Zm7.18-64a41.5,41.5,0,0,0,0,56.93,38.76,38.76,0,0,0,55.54,0,41.48,41.48,0,0,0,0-56.93,38.76,38.76,0,0,0-55.54,0Zm-116.86,64a51.4,51.4,0,0,1,0-71.17,49.11,49.11,0,0,1,70,0,51.61,51.61,0,0,1,0,71.17,49.11,49.11,0,0,1-70,0Zm7.18-64a41.5,41.5,0,0,0,0,56.93,38.76,38.76,0,0,0,55.54,0,41.5,41.5,0,0,0,0-56.93,38.76,38.76,0,0,0-55.54,0Zm322.62,77.3V196.63h9.63V265.7Zm-29.16,0V185.47L713,249.79h-8.24l-36-64.18V265.7H658.43V168h11.72l38.79,69.9L747.58,168h11.73V265.7Zm-393.23,0V168h36.56a32.82,32.82,0,0,1,21.07,6.63A23.17,23.17,0,0,1,421.91,194q0,15.63-13.26,21.9a23.28,23.28,0,0,1,15.62,23.31,23.41,23.41,0,0,1-8.79,19.67,33.7,33.7,0,0,1-21.35,6.84Zm10.19-8.93h27.77a23.17,23.17,0,0,0,14.3-4.53,16,16,0,0,0,6.07-13.75,15.87,15.87,0,0,0-6.07-13.6,23.24,23.24,0,0,0-14.3-4.54H366.09Zm0-44.51h26.37a22.2,22.2,0,0,0,14-4.26A16,16,0,0,0,412,194.54a15.7,15.7,0,0,0-5.58-13.4,22.62,22.62,0,0,0-14-4.18H366.09Zm412.76-31.88a5.73,5.73,0,0,1-1.82-4.26,5.57,5.57,0,0,1,1.82-4.12,6,6,0,0,1,8.44,0,5.69,5.69,0,0,1,1.75,4.12,6,6,0,0,1-10.19,4.26Zm-106.75-85,24.89-7c3,9.81,12.09,15.42,23,15.42,11.57,0,19.11-5.78,19.11-13.84,0-10.7-13.5-12.45-27.17-16-17.51-4.56-38.21-11.93-38.21-36.29C673.67,16.34,693.13.56,718,.56c22.6,0,37.85,11,43.81,30.67l-23.48,6.83a19.08,19.08,0,0,0-19.81-14.54c-11.57,0-18.4,6.83-18.4,14.19,0,10.35,12.79,12.62,26.11,16.3,16.48,4.56,39.61,10.34,39.61,35.23,0,23-20.33,38-46.09,38-23.67,0-41.72-12.09-47.68-31.9Zm-314.93,0,24.89-7c3,9.81,12.09,15.42,23,15.42,11.57,0,19.1-5.78,19.1-13.84,0-10.7-13.49-12.45-27.16-16-17.52-4.56-38.21-11.93-38.21-36.29,0-21.37,19.46-37.15,44.34-37.15,22.61,0,37.85,11,43.82,30.67l-23.49,6.83a19.06,19.06,0,0,0-19.8-14.54c-11.57,0-18.41,6.83-18.41,14.19,0,10.35,12.79,12.62,26.12,16.3,16.47,4.56,39.6,10.34,39.6,35.23,0,23-20.32,38-46.09,38-23.66,0-41.72-12.09-47.68-31.9Zm209.08-13.5C566.25,56.47,583.6,37,606.73,37c13.15,0,22.08,4.72,28.57,12.44V38.6h24.53v86.75H635.3V114.48a35.42,35.42,0,0,1-28.57,12.44c-23.14,0-40.49-19.63-40.49-45Zm24.36,0c0,13.5,9.64,23.49,22.26,23.49a22.53,22.53,0,0,0,22.45-22.59c0-.3,0-.6,0-.9a22.52,22.52,0,0,0-21.54-23.46l-.89,0c-12.63,0-22.28,10-22.28,23.48Zm-131.09,0C459.52,56.47,476.87,37,500,37c13.15,0,22.09,4.72,28.57,12.44V38.6H553.1v86.75H528.57V114.48A35.41,35.41,0,0,1,500,126.92c-23.14,0-40.49-19.63-40.49-45Zm24.36,0c0,13.5,9.64,23.49,22.26,23.49a22.52,22.52,0,0,0,22.45-22.58c0-.31,0-.61,0-.91A22.51,22.51,0,0,0,507,58.42l-.9,0c-12.63,0-22.27,10-22.27,23.48Z"/></svg>
