<svg width="124" height="124" viewBox="0 0 124 124" fill="none" xmlns="http://www.w3.org/2000/svg">
<circle cx="62" cy="62" r="62" fill="url(#paint0_radial_129_237)"/>
<path d="M96.6576 35.6836H86.9288C86.2799 35.6836 85.7538 36.2097 85.7538 36.8586V38.2334C81.6554 36.8072 71.4738 33.2843 69.7885 32.9459C69.6112 32.9108 69.4219 32.8683 69.2236 32.8284H69.2231C65.8062 31.7872 62.0933 32.6306 59.4612 35.0457C56.6307 37.4194 53.4828 40.1087 51.8237 41.5366C50.8176 42.3995 50.2227 43.6474 50.1861 44.9719L49.8687 56.3988C49.8587 56.8237 49.9652 57.2433 50.1766 57.6115L48.667 61.4104C44.779 60.6949 41.8284 61.4408 40.8039 63.4571C40.7955 63.4702 40.784 63.4771 40.7766 63.4902L40.7388 63.5584L40.7331 63.5678L38.1481 68.2925C37.4195 69.8903 37.9975 71.8784 39.7779 73.8926C41.6543 75.8817 43.9155 77.4685 46.4245 78.556C48.8915 79.7368 51.573 80.4035 54.3055 80.5157H54.4088C57.042 80.5157 58.8821 79.6508 59.5625 78.1516L62.0385 73.641L62.0747 73.5728L62.1581 73.4212C62.1581 73.4118 62.1581 73.4013 62.1675 73.3918L62.1933 73.3399C63.1768 71.1919 61.7385 68.3672 58.4637 65.8199L61.6725 59.8956L61.673 59.8961C62.1425 60.1484 62.667 60.2822 63.2005 60.2848C63.3909 60.2848 63.5813 60.268 63.7691 60.2355C68.1481 59.467 73.8144 58.3671 75.9372 57.4906C78.5762 56.4 81.9297 54.6155 82.8906 54.0925H85.7637L85.7642 55.7527C85.7642 56.0642 85.888 56.3632 86.1083 56.5835C86.3286 56.8039 86.6276 56.9277 86.9392 56.9277H96.668C96.9796 56.9277 97.2786 56.8039 97.4989 56.5835C97.7193 56.3632 97.8431 56.0642 97.8431 55.7527V36.8587C97.8431 36.5455 97.7177 36.2455 97.4953 36.0246C97.2729 35.8038 96.9718 35.681 96.6586 35.6837L96.6576 35.6836ZM90.8063 43.9086C90.8598 43.7607 90.9484 43.6274 91.0649 43.521C91.5312 43.0861 92.2546 43.0861 92.7214 43.521C92.8337 43.6306 92.9218 43.7628 92.98 43.9086C93.0367 44.0507 93.0645 44.2023 93.0624 44.355C93.0661 44.4305 93.0582 44.5055 93.0388 44.5785C93.0262 44.6545 93.0063 44.7295 92.98 44.8019C92.9475 44.8722 92.9082 44.9393 92.8625 45.0013C92.829 45.07 92.7807 45.1298 92.7214 45.1775C92.5048 45.4031 92.2058 45.5305 91.8932 45.5305C91.5805 45.5305 91.2815 45.4031 91.0649 45.1775C90.844 44.9614 90.7208 44.6645 90.7239 44.355C90.7218 44.2024 90.7496 44.0508 90.8063 43.9086V43.9086ZM54.3195 78.1676C51.9144 78.0606 49.556 77.4668 47.387 76.4213C45.1771 75.4714 43.1832 74.0829 41.5261 72.3393C40.4308 71.1008 39.9634 69.9541 40.2336 69.3488L41.2077 67.5731C42.4871 69.8124 45.2625 72.1251 49.0026 73.83V73.8305C51.49 75.0286 54.1998 75.6959 56.9595 75.7892C57.3781 75.7876 57.7957 75.7609 58.2111 75.7095L57.4474 77.1032C57.1395 77.782 55.9807 78.1922 54.3195 78.1676L54.3195 78.1676ZM60.0676 72.3267C60.0676 72.3267 60.0251 72.408 60.002 72.4536L59.9784 72.4972C59.0809 73.8599 54.7602 73.8636 49.9909 71.6899C44.7491 69.2989 42.2747 65.8584 42.8738 64.5422C43.2604 63.7066 45.0334 63.1994 47.7889 63.6259L46.9181 65.8148C46.7487 66.2408 46.8426 66.7265 47.1589 67.0591C49.1375 69.3441 51.9445 70.7483 54.9601 70.9613H55.0094C55.4291 70.9503 55.8115 70.7158 56.0118 70.3465L57.3348 67.9037C59.5835 69.7523 60.4354 71.5148 60.064 72.3268L60.0676 72.3267ZM54.3101 68.5515V68.551C52.4458 68.2016 50.73 67.3004 49.3845 65.9638L52.2292 58.8115C53.2353 58.8141 54.2083 58.4548 54.9716 57.7986C55.7343 57.1429 56.2358 56.2344 56.3843 55.2398L56.6193 53.6982C57.1344 53.6955 57.6437 53.812 58.1069 54.0386C58.1326 54.0502 58.1599 54.0633 58.1866 54.0738C59.1251 54.5731 59.7766 55.4811 59.9491 56.5297C59.9297 56.6886 59.9187 56.8481 59.9161 57.0081C59.9203 57.1969 59.9407 57.3853 59.9775 57.5709C59.9308 57.9822 59.8059 58.3814 59.6092 58.7459L54.3101 68.5515ZM61.2709 53.7196C60.7196 52.9622 59.9942 52.349 59.1559 51.9315C59.1197 51.9137 59.083 51.8984 59.0453 51.8843C58.3932 51.5816 57.6892 51.4043 56.9717 51.3629L57.4863 48.0198C59.8212 46.1871 63.964 43.6173 66.1709 43.7956C67.0248 43.8801 67.8395 44.199 68.5239 44.7178C69.208 45.236 69.7357 45.9337 70.0484 46.7331C70.1716 47.1586 70.1475 47.6139 69.9786 48.0235C69.8102 48.4332 69.5075 48.7742 69.1199 48.9892C67.0412 50.4287 64.848 51.6948 62.5625 52.776C62.0814 53.0152 61.6445 53.3341 61.271 53.7196L61.2709 53.7196ZM94.2891 49.3721H85.7589L85.7584 51.7458H82.5858C82.3886 51.7458 82.194 51.7956 82.0209 51.8906C81.98 51.9131 77.9624 54.1115 75.0317 55.3217V55.3212C71.2098 56.4789 67.3067 57.3491 63.3547 57.924C63.085 57.9739 62.8076 57.8988 62.5993 57.7205C62.4944 57.6282 62.4105 57.5138 62.3538 57.3858C62.3664 57.1152 62.3591 56.8445 62.3313 56.5749C62.4619 55.8447 62.9334 55.2205 63.6007 54.8958C66.0099 53.7559 68.3222 52.4198 70.5128 50.9008C71.2907 50.4035 71.887 49.6675 72.2134 48.8036C72.5396 47.9397 72.5779 46.9934 72.3225 46.1058C71.8766 44.8432 71.0777 43.7349 70.0212 42.9124C68.9648 42.0893 67.6948 41.5868 66.3619 41.4636C62.3491 41.1583 56.3298 45.9417 55.6589 46.4888H55.6584C55.4334 46.6729 55.2844 46.9336 55.2404 47.2211L54.4378 52.4357L54.0606 54.8775C53.9253 55.7892 53.14 56.4633 52.2184 56.459L52.5357 45.031L52.5352 45.0305C52.5557 44.3685 52.8541 43.7453 53.3577 43.3153C55.0179 41.8912 58.1563 39.2028 60.98 36.8396C61.9998 35.8886 63.2546 35.2276 64.6157 34.9244C65.9764 34.6212 67.3932 34.6873 68.7197 35.1159C68.9369 35.1641 69.1425 35.2108 69.3355 35.2486C70.6679 35.5151 79.6026 38.568 85.7627 40.7218V47.0195H94.2929L94.2935 47.0201C94.9423 47.0201 95.4685 47.5462 95.4685 48.1951C95.4685 48.8439 94.9423 49.3701 94.2935 49.3701L94.2891 49.3721ZM58.8081 85.9529C58.8081 86.6862 55.5454 88.4782 49.4962 88.4782C43.4471 88.4782 40.1843 86.6863 40.1843 85.9529C40.1843 85.2479 43.2393 83.5489 48.9134 83.4372C48.9108 83.5264 48.9192 83.6156 48.9381 83.7032L49.3504 85.0859L47.985 84.8026C47.677 84.7329 47.3544 84.7895 47.089 84.9605C46.8241 85.131 46.6384 85.4012 46.5744 85.7101C46.5104 86.0191 46.5734 86.3406 46.7486 86.6024C46.9243 86.8647 47.1976 87.0451 47.5076 87.1033L50.7976 87.7874C51.2031 87.8713 51.6222 87.736 51.9018 87.4312C52.1814 87.1264 52.28 86.6973 52.162 86.3008L51.3217 83.4876C56.2005 83.8003 58.8081 85.2974 58.8081 85.953L58.8081 85.9529Z" fill="url(#paint1_linear_129_237)"/>
<defs>
<radialGradient id="paint0_radial_129_237" cx="0" cy="0" r="1" gradientUnits="userSpaceOnUse" gradientTransform="translate(62 62) scale(99.9144)">
<stop offset="0.270833" stop-color="white"/>
<stop offset="1" stop-color="#E6B7ED" stop-opacity="0"/>
</radialGradient>
<linearGradient id="paint1_linear_129_237" x1="67.8421" y1="32.3901" x2="67.8421" y2="88.4782" gradientUnits="userSpaceOnUse">
<stop stop-color="#F43A63"/>
<stop offset="0.96875" stop-color="#9855E4"/>
</linearGradient>
</defs>
</svg>
