<svg width="124" height="124" viewBox="0 0 124 124" fill="none" xmlns="http://www.w3.org/2000/svg">
<circle cx="62" cy="62" r="62" fill="url(#paint0_radial_129_238)"/>
<path d="M71.1155 70.8904C71.1155 70.8904 63.7776 59.9207 63.7655 59.9032C63.5348 59.5685 63.1547 59.3689 62.7478 59.3689C62.3415 59.3689 61.9614 59.5685 61.7301 59.9032C61.7301 59.9032 54.3893 70.8762 54.3801 70.8904C54.1367 71.2672 54.117 71.7468 54.3281 72.1427C54.5398 72.5387 54.9488 72.7891 55.3978 72.7968H57.8478V87.543C57.8478 88.2195 58.3963 88.768 59.0728 88.768C59.7493 88.768 60.2978 88.2195 60.2978 87.543V71.5718C60.2978 71.247 60.1687 70.9352 59.9391 70.7055C59.7094 70.4753 59.3976 70.3463 59.0728 70.3463H57.6914L62.7478 62.7885L67.8036 70.3463H66.4227C66.0979 70.3463 65.7862 70.4753 65.5565 70.7055C65.3268 70.9352 65.1977 71.247 65.1977 71.5718V81.4151C65.1977 82.0915 65.7463 82.6401 66.4227 82.6401C67.0992 82.6401 67.6477 82.0915 67.6477 81.4151V72.7968H70.0977C70.5462 72.788 70.9541 72.5376 71.1658 72.1422C71.3769 71.7462 71.3577 71.2677 71.1155 70.8904H71.1155Z" fill="url(#paint1_linear_129_238)"/>
<path d="M62.0617 48.9089L63.8992 49.5078C64.5417 49.715 65.2314 49.3639 65.4408 48.7219C65.6503 48.0799 65.3003 47.3892 64.6594 47.1781L63.6668 46.8549V45.893C63.6668 45.2165 63.1183 44.668 62.4418 44.668C61.7653 44.668 61.2168 45.2165 61.2168 45.893V47.7442C61.2168 48.2747 61.558 48.7444 62.0617 48.909L62.0617 48.9089Z" fill="url(#paint2_linear_129_238)"/>
<path d="M24.7727 75.2892C24.0962 75.2892 23.5471 75.8377 23.5471 76.5147C23.5471 77.1912 24.0962 77.7397 24.7727 77.7397H55.3977V75.247C54.5079 75.2421 53.6499 74.9156 52.9827 74.3272C52.3149 73.7393 51.8824 72.9294 51.7648 72.0478C51.6472 71.1657 51.8528 70.2711 52.3434 69.529C52.351 69.5169 59.6939 58.5412 59.6939 58.5412C60.3797 57.5268 61.5237 56.9192 62.7482 56.9192C63.9726 56.9192 65.1167 57.5267 65.8024 58.5412C65.8019 58.5412 65.9987 58.8343 73.1524 69.5284C73.6419 70.2711 73.8469 71.1651 73.7288 72.0467C73.6113 72.9288 73.1787 73.7382 72.5115 74.3261C71.8443 74.914 70.9867 75.241 70.0976 75.247V77.7397H100.723C101.399 77.7397 101.948 77.1912 101.948 76.5147C101.948 75.8377 101.399 75.2891 100.723 75.2891H100.11V55.6836H100.735C101.207 55.6721 101.632 55.3926 101.829 54.9639C102.027 54.5346 101.964 54.0303 101.667 53.6634L94.5128 42.6597C93.8478 41.6179 92.6994 40.9851 91.4634 40.9791H76.7214L78.9669 43.4302H91.4641C91.8699 43.4373 92.2451 43.6501 92.4595 43.9952L98.4669 53.2329H81.4135C81.1263 53.3642 80.8228 53.4571 80.5117 53.5107V75.2891H78.0617V51.1111H79.8992C80.381 51.1024 80.8135 50.8142 81.0077 50.3734C81.2013 49.9321 81.1214 49.4186 80.8021 49.0576L63.652 30.348C63.4147 30.1052 63.0893 29.9685 62.7497 29.9685C62.4101 29.9685 62.0847 30.1052 61.8474 30.348C61.8474 30.348 44.7226 49.031 44.6974 49.0576C44.378 49.4186 44.2981 49.9321 44.4917 50.3729C44.6859 50.8136 45.1179 51.1018 45.5997 51.1111H47.4372V75.2891H44.9872V53.5107C44.676 53.4571 44.3725 53.3636 44.0854 53.2329H27.0334L33.0391 43.9952C33.2535 43.6506 33.6276 43.4379 34.0333 43.4302H46.5306L48.7777 40.9791H34.0329C32.7975 40.9857 31.6497 41.6184 30.9847 42.6597C30.9847 42.6597 23.7529 53.7831 23.748 53.7908C23.5106 54.1687 23.4953 54.645 23.708 55.0371C23.9202 55.4292 24.3277 55.6764 24.7739 55.6835H25.3864V75.2891L24.7727 75.2892ZM91.5359 59.3684H93.9848C94.6612 59.3684 95.2098 59.9169 95.2098 60.5934C95.2098 61.2699 94.6612 61.8184 93.9848 61.8184H91.5359C90.8594 61.8184 90.3109 61.2699 90.3109 60.5934C90.3109 59.9169 90.8594 59.3684 91.5359 59.3684ZM91.5359 64.2684H93.9848C94.6612 64.2684 95.2098 64.8169 95.2098 65.4934C95.2098 66.1699 94.6612 66.7184 93.9848 66.7184H91.5359C90.8594 66.7184 90.3109 66.1699 90.3109 65.4934C90.3109 64.8169 90.8594 64.2684 91.5359 64.2684ZM91.5359 69.1684H93.9848C94.6612 69.1684 95.2098 69.7169 95.2098 70.3934C95.2098 71.0699 94.6612 71.6184 93.9848 71.6184H91.5359C90.8594 71.6184 90.3109 71.0699 90.3109 70.3934C90.3109 69.7169 90.8594 69.1684 91.5359 69.1684ZM84.1836 59.3684H86.6325C87.309 59.3684 87.8575 59.9169 87.8575 60.5934C87.8575 61.2699 87.309 61.8184 86.6325 61.8184H84.1836C83.5072 61.8184 82.9586 61.2699 82.9586 60.5934C82.9586 59.9169 83.5072 59.3684 84.1836 59.3684ZM84.1836 64.2684H86.6325C87.309 64.2684 87.8575 64.8169 87.8575 65.4934C87.8575 66.1699 87.309 66.7184 86.6325 66.7184H84.1836C83.5072 66.7184 82.9586 66.1699 82.9586 65.4934C82.9586 64.8169 83.5072 64.2684 84.1836 64.2684ZM84.1836 69.1684H86.6325C87.309 69.1684 87.8575 69.7169 87.8575 70.3934C87.8575 71.0699 87.309 71.6184 86.6325 71.6184H84.1836C83.5072 71.6184 82.9586 71.0699 82.9586 70.3934C82.9586 69.7169 83.5072 69.1684 84.1836 69.1684ZM62.7468 41.6052C64.2086 41.6052 65.6108 42.186 66.645 43.2195C67.6786 44.2537 68.2593 45.6558 68.2593 47.1177C68.2593 48.5796 67.6786 49.9817 66.645 51.0158C65.6109 52.0494 64.2087 52.6302 62.7468 52.6302C61.285 52.6302 59.8829 52.0494 58.8487 51.0158C57.8151 49.9817 57.2343 48.5796 57.2343 47.1177C57.2343 45.6558 57.8151 44.2537 58.8487 43.2195C59.8828 42.1859 61.285 41.6052 62.7468 41.6052ZM38.86 59.3684H41.3089C41.9854 59.3684 42.5339 59.9169 42.5339 60.5934C42.5339 61.2699 41.9854 61.8184 41.3089 61.8184H38.86C38.1835 61.8184 37.635 61.2699 37.635 60.5934C37.635 59.9169 38.1835 59.3684 38.86 59.3684ZM38.86 64.2684H41.3089C41.9854 64.2684 42.5339 64.8169 42.5339 65.4934C42.5339 66.1699 41.9854 66.7184 41.3089 66.7184H38.86C38.1835 66.7184 37.635 66.1699 37.635 65.4934C37.635 64.8169 38.1835 64.2684 38.86 64.2684ZM38.86 69.1684H41.3089C41.9854 69.1684 42.5339 69.7169 42.5339 70.3934C42.5339 71.0699 41.9854 71.6184 41.3089 71.6184H38.86C38.1835 71.6184 37.635 71.0699 37.635 70.3934C37.635 69.7169 38.1835 69.1684 38.86 69.1684ZM31.5078 59.3684H33.9567H33.9561C34.6331 59.3684 35.1811 59.9169 35.1811 60.5934C35.1811 61.2699 34.6331 61.8184 33.9561 61.8184H31.5072H31.5078C30.8313 61.8184 30.2828 61.2699 30.2828 60.5934C30.2828 59.9169 30.8313 59.3684 31.5078 59.3684ZM31.5078 64.2684H33.9567H33.9561C34.6331 64.2684 35.1811 64.8169 35.1811 65.4934C35.1811 66.1699 34.6331 66.7184 33.9561 66.7184H31.5072H31.5078C30.8313 66.7184 30.2828 66.1699 30.2828 65.4934C30.2828 64.8169 30.8313 64.2684 31.5078 64.2684ZM31.5078 69.1684H33.9567H33.9561C34.6331 69.1684 35.1811 69.7169 35.1811 70.3934C35.1811 71.0699 34.6331 71.6184 33.9561 71.6184H31.5072H31.5078C30.8313 71.6184 30.2828 71.0699 30.2828 70.3934C30.2828 69.7169 30.8313 69.1684 31.5078 69.1684Z" fill="url(#paint3_linear_129_238)"/>
<defs>
<radialGradient id="paint0_radial_129_238" cx="0" cy="0" r="1" gradientUnits="userSpaceOnUse" gradientTransform="translate(62 62) scale(99.9144)">
<stop offset="0.270833" stop-color="white"/>
<stop offset="1" stop-color="#E6B7ED" stop-opacity="0"/>
</radialGradient>
<linearGradient id="paint1_linear_129_238" x1="62.7471" y1="59.3689" x2="62.7471" y2="88.768" gradientUnits="userSpaceOnUse">
<stop stop-color="#F43A63"/>
<stop offset="0.96875" stop-color="#9855E4"/>
</linearGradient>
<linearGradient id="paint2_linear_129_238" x1="63.3592" y1="44.668" x2="63.3592" y2="49.5673" gradientUnits="userSpaceOnUse">
<stop stop-color="#F43A63"/>
<stop offset="0.96875" stop-color="#9855E4"/>
</linearGradient>
<linearGradient id="paint3_linear_129_238" x1="62.7474" y1="29.9685" x2="62.7474" y2="77.7397" gradientUnits="userSpaceOnUse">
<stop stop-color="#F43A63"/>
<stop offset="0.96875" stop-color="#9855E4"/>
</linearGradient>
</defs>
</svg>
