<svg width="124" height="124" viewBox="0 0 124 124" fill="none" xmlns="http://www.w3.org/2000/svg">
<circle cx="62" cy="62" r="62" fill="url(#paint0_radial_129_234)"/>
<path d="M84.8177 54.12L75.75 45.0522V68.49L84.8177 59.4222C85.5205 58.7191 85.9156 57.7656 85.9156 56.7711C85.9156 55.7766 85.5205 54.8231 84.8177 54.1196V54.12Z" fill="url(#paint1_linear_129_234)"/>
<path d="M44.2501 82.5H70.5001C71.4946 82.5 72.4484 82.1049 73.1519 81.4018C73.855 80.6984 74.2501 79.7445 74.2501 78.75V41.25C74.2501 40.2555 73.855 39.3017 73.1519 38.5982C72.4485 37.895 71.4946 37.5 70.5001 37.5H51.5324C50.5131 37.5 49.5351 37.9015 48.8099 38.6176L41.6099 45.825C40.9028 46.5432 40.5044 47.5095 40.5 48.5176V78.7499C40.5 79.7444 40.8951 80.6982 41.5982 81.4017C42.3016 82.1049 43.2555 82.4999 44.25 82.4999L44.2501 82.5ZM67.5001 72H46.5001C46.0859 72 45.7501 71.6642 45.7501 71.25C45.7501 70.8358 46.0859 70.5 46.5001 70.5H67.5001C67.9143 70.5 68.2501 70.8358 68.2501 71.25C68.2501 71.6642 67.9143 72 67.5001 72ZM67.5001 65.25H46.5001C46.0859 65.25 45.7501 64.9142 45.7501 64.5C45.7501 64.0858 46.0859 63.75 46.5001 63.75H67.5001C67.9143 63.75 68.2501 64.0858 68.2501 64.5C68.2501 64.9142 67.9143 65.25 67.5001 65.25ZM67.5001 58.5H46.5001C46.0859 58.5 45.7501 58.1642 45.7501 57.75C45.7501 57.3358 46.0859 57 46.5001 57H67.5001C67.9143 57 68.2501 57.3358 68.2501 57.75C68.2501 58.1642 67.9143 58.5 67.5001 58.5ZM54.5778 51H67.5001C67.9143 51 68.2501 51.3358 68.2501 51.75C68.2501 52.1642 67.9143 52.5 67.5001 52.5H54.5778C54.1636 52.5 53.8278 52.1642 53.8278 51.75C53.8278 51.3358 54.1636 51 54.5778 51ZM51.0003 51C51.3036 51 51.5772 51.1828 51.693 51.4631C51.8092 51.7433 51.7452 52.0657 51.5306 52.2804C51.316 52.495 50.9936 52.5589 50.7133 52.4427C50.4331 52.3269 50.2503 52.0533 50.2503 51.75C50.2503 51.3358 50.5861 51 51.0003 51ZM49.5003 40.05V44.175C49.5003 44.7917 49.2552 45.3831 48.8192 45.819C48.3833 46.2549 47.792 46.5 47.1752 46.5H43.0502L49.5003 40.05Z" fill="url(#paint2_linear_129_234)"/>
<defs>
<radialGradient id="paint0_radial_129_234" cx="0" cy="0" r="1" gradientUnits="userSpaceOnUse" gradientTransform="translate(62 62) scale(99.9144)">
<stop offset="0.270833" stop-color="white"/>
<stop offset="1" stop-color="#E6B7ED" stop-opacity="0"/>
</radialGradient>
<linearGradient id="paint1_linear_129_234" x1="80.8328" y1="45.0522" x2="80.8328" y2="68.49" gradientUnits="userSpaceOnUse">
<stop stop-color="#F43A63"/>
<stop offset="0.96875" stop-color="#9855E4"/>
</linearGradient>
<linearGradient id="paint2_linear_129_234" x1="57.375" y1="37.5" x2="57.375" y2="82.5" gradientUnits="userSpaceOnUse">
<stop stop-color="#F43A63"/>
<stop offset="0.96875" stop-color="#9855E4"/>
</linearGradient>
</defs>
</svg>
