<svg width="124" height="124" viewBox="0 0 124 124" fill="none" xmlns="http://www.w3.org/2000/svg">
<circle cx="62" cy="62" r="62" fill="url(#paint0_radial_129_235)"/>
<path d="M56.0772 53.6456V54.0926C56.0772 54.6311 56.5141 55.068 57.0526 55.068C57.5917 55.068 58.0286 54.6311 58.0286 54.0926V53.6456C58.0281 53.2505 57.7903 52.8945 57.4259 52.7432C57.061 52.592 56.6408 52.6752 56.3612 52.9542C56.1804 53.1389 56.0783 53.3866 56.0771 53.6456H56.0772Z" fill="url(#paint1_linear_129_235)"/>
<path d="M65.4373 53.6456V54.0926C65.4373 54.6299 65.8731 55.0658 66.4105 55.0658C66.9479 55.0658 67.3837 54.6299 67.3837 54.0926V53.6456C67.3837 53.1082 66.9479 52.6724 66.4105 52.6724C65.8731 52.6724 65.4373 53.1082 65.4373 53.6456Z" fill="url(#paint2_linear_129_235)"/>
<path d="M64.1914 52.1814C63.8845 52.1809 63.6233 51.9577 63.5748 51.6546C63.5263 51.3516 63.7054 51.0586 63.9967 50.9627C65.5195 50.605 67.0792 50.4286 68.6428 50.4381C69.2327 50.5056 69.7963 50.7205 70.2807 51.0631C70.418 51.1624 70.5089 51.3131 70.5329 51.4805C70.5569 51.6479 70.5123 51.8181 70.409 51.9515C70.3058 52.0854 70.1523 52.1719 69.9844 52.1909C69.8158 52.2099 69.6473 52.1597 69.5167 52.052C69.2081 51.8494 68.8571 51.721 68.4905 51.677C67.1094 51.6892 65.7332 51.8472 64.3856 52.1491C64.3231 52.1703 64.2573 52.1809 64.1914 52.1814Z" fill="url(#paint3_linear_129_235)"/>
<path d="M59.4043 52.1813C59.3384 52.1813 59.2732 52.1707 59.2107 52.1507C57.8602 51.851 56.4818 51.6931 55.0985 51.678C54.7302 51.7215 54.3775 51.8499 54.0673 52.053C53.7933 52.2277 53.4311 52.1629 53.2341 51.9046C53.0371 51.6456 53.0717 51.2796 53.3128 51.0619C53.7972 50.7221 54.3591 50.5084 54.9472 50.4403C56.5125 50.4313 58.0739 50.6071 59.5985 50.9637C59.8909 51.0586 60.0706 51.3521 60.0226 51.6557C59.9746 51.9598 59.7129 52.183 59.4054 52.183L59.4043 52.1813Z" fill="url(#paint4_linear_129_235)"/>
<path d="M77.7071 78.4185C76.0118 76.1456 73.8863 74.2276 71.4504 72.775C70.1574 72.0094 68.8025 71.3532 67.4007 70.8125C67.0982 70.6925 66.8192 70.5212 66.5754 70.3063C66.2383 70 65.9643 69.6305 65.7696 69.2187C65.6948 69.0602 65.6301 68.8978 65.5754 68.731C66.495 68.1908 67.3031 67.4804 67.9571 66.6373C68.2294 66.3727 68.5313 66.14 68.8566 65.9436C69.1005 65.7812 69.3377 65.6188 69.5129 65.4749C71.5319 63.7996 72.019 61.5876 72.1256 59.5313C72.163 59.5313 72.2004 59.5374 72.2383 59.5374C73.6195 59.5374 74.9136 58.5001 75.5698 56.7562H75.5692C75.9648 55.822 75.9693 54.7684 75.582 53.8314C75.3225 53.2862 74.8923 52.8404 74.3566 52.5625C74.9191 45.4498 73.6629 39.606 70.9693 36.881C70.5608 36.477 70.0508 36.1908 69.4933 36.0507C68.9358 35.9112 68.3516 35.924 67.8007 36.0875L67.4508 36.1874H67.4503C67.3431 36.2192 67.2315 36.2343 67.1194 36.2309C66.7243 36.2332 66.3526 36.0418 66.1255 35.7187C65.7366 35.1684 65.1395 34.8007 64.4732 34.7002C63.8069 34.6004 63.1284 34.7761 62.5944 35.1874L62.4755 35.2812C62.139 35.5697 61.6457 35.5825 61.2942 35.3124L61.1256 35.1874C60.6959 34.8509 60.1647 34.6707 59.6195 34.6751C58.817 34.6746 58.0642 35.0635 57.6005 35.7187C57.2969 36.1439 56.759 36.3314 56.2567 36.1874L55.9191 36.0875C55.3683 35.924 54.7841 35.9117 54.2266 36.0513C53.6691 36.1908 53.1596 36.4776 52.7506 36.8811C50.0691 39.5998 48.8131 45.4185 49.3566 52.5068C48.765 52.7741 48.2885 53.2439 48.0128 53.8321C47.6233 54.7685 47.6255 55.8221 48.0195 56.7568C48.5759 58.2132 49.7885 59.5504 51.3321 59.5504C51.3756 59.5504 51.4197 59.5381 51.4694 59.5381C51.5692 61.5884 52.0508 63.7942 54.0821 65.4755C54.2573 65.6195 54.4883 65.7819 54.7383 65.9504C55.0653 66.1441 55.3678 66.3773 55.6379 66.6446C56.3031 67.4699 57.1039 68.1765 58.0067 68.7316C57.9526 68.8985 57.8879 69.0609 57.8131 69.2193C57.6211 69.6345 57.3466 70.0067 57.0067 70.3131C56.7668 70.5251 56.4917 70.6942 56.1942 70.8131C54.788 71.3527 53.4292 72.009 52.1317 72.7757C52.1255 72.7757 52.1255 72.7879 52.1127 72.7879L52.1004 72.8002C52.0943 72.8002 52.0943 72.8064 52.0881 72.8064V72.8069C49.6751 74.2556 47.5674 76.1596 45.8817 78.4129C45.3488 79.0134 45.1105 79.8197 45.2316 80.6132C45.4626 81.6757 46.519 82.3509 47.2942 82.7633V82.7628C48.2501 83.2449 49.2479 83.6383 50.2757 83.938C52.8147 84.6891 55.4209 85.1919 58.057 85.438C58.0821 85.4441 58.1073 85.4441 58.1318 85.4503C58.5007 85.4815 58.8695 85.5189 59.2317 85.5379C60.0816 85.6004 60.9504 85.6316 61.7943 85.6316C62.6381 85.6316 63.5068 85.6004 64.3568 85.544C64.7441 85.5128 65.1319 85.4877 65.5131 85.4441C68.1531 85.1914 70.7631 84.6875 73.3072 83.938C74.3374 83.6406 75.3379 83.2472 76.2944 82.7628C77.0695 82.3504 78.1258 81.6752 78.3569 80.6126V80.6132C78.4853 79.8208 78.2465 79.0133 77.7074 78.4191L77.7071 78.4185ZM61.7943 70.8247C60.7161 70.8153 59.7067 70.2929 59.0755 69.4185C59.0945 69.375 59.1129 69.3247 59.1319 69.2745V69.2751C59.984 69.5881 60.8863 69.7427 61.7943 69.731C62.7006 69.736 63.5996 69.5792 64.4506 69.2689C64.4696 69.3192 64.4819 69.375 64.5008 69.4252C63.8753 70.2985 62.8691 70.8186 61.7944 70.8247L61.7943 70.8247ZM63.8361 60.6752V60.6757C63.1905 61.0139 62.4617 61.1623 61.7351 61.1026C61.0063 61.1623 60.2753 61.0145 59.6274 60.6757C59.4321 60.5128 59.4042 60.222 59.5649 60.0251C59.7278 59.8253 60.0203 59.7924 60.2239 59.9508C60.705 60.1367 61.2223 60.2103 61.7362 60.1651C62.2485 60.2103 62.7641 60.1367 63.2435 59.9508C63.4466 59.7929 63.7385 59.8258 63.9014 60.0251C64.0627 60.2226 64.0337 60.5139 63.8362 60.6757L63.8361 60.6752ZM51.7943 56.481C51.7686 56.4844 51.7435 56.4911 51.7195 56.5C51.6888 56.5234 51.6598 56.548 51.6319 56.5748C51.5956 56.5982 51.5621 56.6256 51.532 56.6563C51.5247 56.6702 51.5186 56.6847 51.513 56.6998C51.4723 56.7483 51.4405 56.803 51.4193 56.8627V56.8817V56.8811C51.3986 56.9565 51.3902 57.0346 51.3947 57.1127C51.426 57.413 51.4321 57.788 51.4321 58.2188V58.2874C50.4321 58.3438 49.5884 57.3622 49.1944 56.3187C48.917 55.6976 48.8992 54.9911 49.1447 54.3561C49.3361 53.9588 49.6849 53.6597 50.1068 53.5313L50.1944 53.5062C50.2351 53.4923 50.277 53.4817 50.3194 53.475C50.7245 53.3723 51.147 53.3595 51.5571 53.4376C51.5755 53.4342 51.5945 53.4342 51.6135 53.4376C51.6324 53.4376 51.6509 53.4499 51.676 53.4499C51.7011 53.4499 51.7072 53.4437 51.7262 53.4437H51.7256C51.739 53.4426 51.7519 53.4381 51.763 53.4314C51.8038 53.4247 51.8434 53.4141 51.8819 53.4002C51.9204 53.3885 51.9583 53.3734 51.9946 53.3561C52.0247 53.3327 52.0543 53.3081 52.0822 53.2813C52.114 53.2573 52.1436 53.2306 52.1693 53.1999C52.1905 53.1681 52.2095 53.1346 52.2256 53.1C52.2329 53.0888 52.2368 53.076 52.2385 53.0626C52.2569 53.0386 52.2697 53.0112 52.2759 52.9811C52.2759 52.9688 52.2881 52.956 52.2881 52.9437C52.2915 52.9147 52.2915 52.8857 52.2881 52.8561C52.2881 52.831 52.3004 52.8059 52.3004 52.7746C52.2067 51.581 53.0314 45.6245 54.9064 43.7685L54.907 43.7691C55.1586 43.4744 55.5203 43.2958 55.907 43.2752C57.767 44.071 59.772 44.4711 61.7943 44.4499C63.8188 44.4683 65.8255 44.0682 67.6883 43.2752C68.075 43.2975 68.4355 43.4755 68.6883 43.7691C70.5633 45.6189 71.3818 51.5755 71.2943 52.7752C71.2937 52.8042 71.2954 52.8338 71.301 52.8628C71.3071 52.8879 71.2948 52.9192 71.301 52.9443L71.3199 52.9817L71.3194 52.9811C71.3266 53.0241 71.3439 53.0648 71.3696 53.1C71.3835 53.1357 71.4025 53.1697 71.4259 53.1999C71.4477 53.2317 71.4756 53.259 71.5069 53.2813C71.5353 53.3098 71.5666 53.3349 71.6006 53.3561C71.633 53.3734 71.6665 53.3879 71.7005 53.4002C71.7435 53.4153 71.7876 53.4281 71.8322 53.4376C71.8445 53.4376 71.8573 53.4437 71.8696 53.4437C71.8819 53.4437 71.9008 53.4499 71.9131 53.4499C71.9382 53.4499 71.9566 53.4376 71.9818 53.4376C72.0007 53.4342 72.0197 53.4342 72.0381 53.4376C72.2669 53.3941 72.4996 53.3795 72.7318 53.3941C72.9912 53.4024 73.2485 53.4487 73.4946 53.5313C73.9114 53.6636 74.2546 53.9621 74.4444 54.3561C74.6921 54.99 74.6765 55.6965 74.4008 56.3187C73.9946 57.4001 73.1631 58.3438 72.157 58.2874C72.1631 57.8248 72.1631 57.4314 72.1944 57.1122C72.1944 57.087 72.2005 57.0686 72.2005 57.0435C72.1966 56.918 72.1553 56.7963 72.0822 56.6936C72.0699 56.6814 72.0699 56.6624 72.0571 56.6562C72.027 56.6239 71.9935 56.5943 71.9572 56.5686C71.9304 56.5424 71.9014 56.5195 71.8696 56.5C71.8506 56.4877 71.8194 56.4877 71.7948 56.4749H71.7943C71.7457 56.4509 71.6927 56.4364 71.638 56.4314H71.6319C71.6073 56.4263 71.5822 56.4241 71.5571 56.4252C71.253 56.4314 70.9996 56.6607 70.9633 56.9626C70.9572 56.9749 70.9511 56.9816 70.9511 56.9877V56.9939H70.9505C70.7318 58.0061 70.1575 58.9063 69.3322 59.5313C68.7692 59.9258 68.018 59.918 67.4634 59.5123C65.9321 58.4571 64.1029 57.9207 62.2446 57.981H61.3507C59.4918 57.9185 57.6627 58.4554 56.132 59.5123C55.575 59.918 54.8222 59.9258 54.257 59.5313C53.666 59.0726 53.1961 58.476 52.8881 57.7936C52.7648 57.5413 52.6805 57.2718 52.6381 56.9939V56.9878C52.6381 56.9816 52.632 56.9755 52.632 56.9688C52.594 56.634 52.2916 56.3935 51.9573 56.4314C51.8998 56.4348 51.844 56.4515 51.7944 56.4811L51.7943 56.481ZM49.8634 82.4882C49.1826 82.2622 48.5202 81.9843 47.8818 81.6567C47.013 81.1941 46.5442 80.7627 46.4504 80.3503C46.4197 79.9134 46.5765 79.4837 46.8818 79.169C48.1133 77.5244 49.5838 76.073 51.2445 74.8631C50.4761 77.3391 50.0123 79.8994 49.8633 82.4881L49.8634 82.4882ZM58.6637 84.2443H58.6631C58.6492 84.2393 58.6341 84.2371 58.6196 84.2382C57.8947 81.5072 57.2256 74.5385 57.9946 71.088C58.1514 70.9357 58.2976 70.7728 58.4321 70.6003C59.0889 71.3062 59.95 71.7889 60.8947 71.9815C60.6162 72.1851 60.359 72.4156 60.1257 72.669C59.9164 72.8899 59.6932 73.0964 59.4572 73.2878C59.2222 73.4787 58.9427 73.6059 58.6447 73.6567C58.3193 73.7281 58.1073 74.0423 58.1625 74.3704C58.2172 74.6985 58.5202 74.9262 58.8506 74.8877C59.1173 74.8447 59.3763 74.7627 59.6196 74.6444C59.7736 74.8676 59.9471 75.0763 60.138 75.2694C59.3171 78.1974 58.8221 81.2074 58.6631 84.2443L58.6637 84.2443ZM64.926 84.2382C64.7736 81.2186 64.2876 78.2253 63.4757 75.3129C63.6766 75.1159 63.8591 74.9005 64.0198 74.6689C64.2497 74.7761 64.4935 74.8492 64.7447 74.8877C64.7776 74.8949 64.8111 74.8994 64.8445 74.9005C65.1749 74.9072 65.4539 74.655 65.4801 74.3257C65.5069 73.9959 65.272 73.703 64.9444 73.6566C64.647 73.6042 64.3674 73.4775 64.1319 73.2878C63.8959 73.0964 63.6727 72.8899 63.4634 72.6689C63.2318 72.4139 62.974 72.1834 62.6944 71.9814C63.6397 71.7906 64.5013 71.3073 65.157 70.6003C65.2876 70.7722 65.4316 70.9334 65.5884 71.0819C66.3573 74.5444 65.6944 81.5004 64.9695 84.2382L64.926 84.2382ZM77.1385 80.3509C77.0448 80.7633 76.576 81.1946 75.7071 81.6572V81.6567C75.0682 81.9876 74.4035 82.2655 73.7194 82.4882C73.5732 79.9 73.1117 77.3392 72.3444 74.8632C74.0084 76.0713 75.4811 77.5227 76.7133 79.169C77.0146 79.486 77.1686 79.9146 77.1379 80.3504L77.1385 80.3509Z" fill="url(#paint5_linear_129_235)"/>
<path d="M69.1873 51.9256L63.9903 51.9814V51.9809C63.6097 51.9909 63.2492 52.1538 62.9903 52.4329H60.574C60.3128 52.1527 59.9496 51.9898 59.5667 51.9809L54.3793 51.925H54.3486V51.9256C53.569 51.9189 52.9045 52.4898 52.7933 53.2615C52.7772 53.3882 52.7794 53.5166 52.8006 53.6427C52.8006 53.6427 53.0657 55.6003 53.1616 56.2454C53.343 57.0032 54.0333 57.5283 54.8123 57.5004H54.8916L59.1662 57.4279C59.8832 57.3961 60.487 56.881 60.6316 56.1779L61.0066 53.8922C61.0278 53.7716 61.0345 53.6483 61.0278 53.5261H62.5278C62.5211 53.645 62.5278 53.7644 62.5479 53.8816L62.9262 56.1896C63.073 56.8994 63.6907 57.4133 64.4157 57.429L68.6467 57.5004H68.7287C69.5127 57.5372 70.2131 57.0132 70.3988 56.2504C70.4959 55.6075 70.7576 53.6728 70.7571 53.6728H70.7565C70.7811 53.5383 70.785 53.4005 70.7671 53.2649C70.6511 52.4853 69.9753 51.9122 69.1873 51.9256L69.1873 51.9256ZM59.5584 55.9882C59.5071 56.184 59.3341 56.3241 59.1315 56.3336L54.8598 56.4061C54.5747 56.4212 54.2655 56.2382 54.2432 56.0836C54.1472 55.4408 53.8838 53.4937 53.8793 53.4653C53.8754 53.4408 53.8754 53.4151 53.8793 53.3905C53.9234 53.1673 54.1238 53.01 54.3509 53.02H54.3615L59.5523 53.0758V53.0752C59.6779 53.0825 59.7906 53.1556 59.8487 53.2672C59.9285 53.3984 59.9575 53.5535 59.9318 53.7047L59.5584 55.9882ZM69.6784 53.4937C69.6784 53.4937 69.4145 55.4402 69.3179 56.0859C69.2962 56.2371 68.9937 56.419 68.684 56.4056L64.4547 56.3342C64.2471 56.3348 64.0635 56.1986 64.005 55.9994L63.6249 53.6941C63.6015 53.5445 63.6344 53.3911 63.717 53.2644C63.7739 53.1573 63.8816 53.0864 64.0022 53.0769L69.2009 53.0211H69.2126C69.4369 53.01 69.6356 53.1656 69.6786 53.3861V53.3972C69.6841 53.4302 69.6836 53.4636 69.6774 53.496L69.6784 53.4937Z" fill="url(#paint6_linear_129_235)"/>
<path d="M92.3344 53.3127H92.3573C92.7775 53.3127 93.1184 53.7329 93.1184 54.0739V54.6124C93.1184 55.0326 92.7775 55.3736 92.3573 55.3736H92.3344C91.9142 55.3736 91.5732 54.9534 91.5732 54.6124V54.0739C91.5732 53.6537 91.9142 53.3127 92.3344 53.3127Z" fill="url(#paint7_linear_129_235)"/>
<path d="M84.5143 53.3127H84.5372C84.9574 53.3127 85.2984 53.7329 85.2984 54.0739V54.6124C85.2984 55.0326 84.9574 55.3736 84.5372 55.3736H84.5143C84.0941 55.3736 83.7532 54.9534 83.7532 54.6124V54.0739C83.7532 53.6537 84.0941 53.3127 84.5143 53.3127Z" fill="url(#paint8_linear_129_235)"/>
<path d="M88.4373 59.9913C89.1164 60.075 89.7944 59.8272 90.2598 59.325C90.3324 59.2223 90.3603 59.0939 90.3374 58.9701C90.3145 58.8462 90.2425 58.7368 90.1376 58.6665C90.0333 58.5962 89.9044 58.5711 89.7811 58.5967C89.6577 58.6224 89.5495 58.6966 89.4819 58.8027C88.8257 59.1375 88.0484 59.1375 87.3921 58.8027C87.3246 58.6966 87.2163 58.6224 87.093 58.5967C86.9696 58.5711 86.8407 58.5962 86.7364 58.6665C86.6315 58.7368 86.5595 58.8462 86.5366 58.9701C86.5137 59.0939 86.5416 59.2223 86.6142 59.325C87.0796 59.8272 87.7576 60.075 88.4373 59.9913H88.4373Z" fill="url(#paint9_linear_129_235)"/>
<path d="M94.5486 53.0428C94.7651 53.1856 95.0559 53.1265 95.1987 52.91C95.341 52.694 95.2819 52.4033 95.0659 52.2604C94.6887 52.0305 94.2713 51.8737 93.8355 51.7995C92.6764 51.6103 91.4912 51.6655 90.3545 51.9618C90.1045 52.031 89.9577 52.2894 90.0269 52.5394C90.0961 52.7894 90.3545 52.9356 90.6045 52.867C91.605 52.6042 92.6496 52.5545 93.6709 52.7225C93.98 52.776 94.2775 52.8848 94.5487 53.0428H94.5486Z" fill="url(#paint10_linear_129_235)"/>
<path d="M86.8457 52.5384C86.9143 52.289 86.767 52.0311 86.517 51.9631C85.3808 51.6668 84.195 51.6115 83.036 51.8007C82.6007 51.8749 82.1833 52.0317 81.8061 52.2616C81.5896 52.4039 81.5293 52.6947 81.6716 52.9112C81.8139 53.1277 82.1046 53.1874 82.3211 53.0457C82.5935 52.8866 82.8926 52.7773 83.2034 52.7237C84.2246 52.5563 85.2693 52.6054 86.2704 52.8682C86.5204 52.9352 86.7771 52.7879 86.8457 52.5384L86.8457 52.5384Z" fill="url(#paint11_linear_129_235)"/>
<path d="M81.693 71.0843C81.7555 71.0123 81.823 70.9325 81.8967 70.8482C81.9486 70.7857 82.0133 70.7143 82.0842 70.6434C82.0323 70.6479 81.9759 70.6524 81.924 70.6524V70.6518C81.6774 70.6786 81.4307 70.5977 81.2483 70.4286C81.1127 70.288 81.0602 70.0871 81.1093 69.8985C81.2014 69.4587 81.3392 69.0296 81.5211 68.6189C79.4061 69.8432 77.5803 71.51 76.169 73.505C75.8911 73.8081 75.7527 74.2137 75.7878 74.6239C75.8749 75.0206 76.2878 75.4169 77.0574 75.841C78.8481 76.6864 80.7465 77.2818 82.6997 77.6105C81.9201 76.0184 81.381 74.3193 81.1004 72.5687C81.0334 72.0056 81.2566 71.4465 81.693 71.0843L81.693 71.0843Z" fill="url(#paint12_linear_129_235)"/>
<path d="M100.704 73.5055C99.2935 71.5105 97.4683 69.8437 95.3533 68.6194C95.5346 69.0301 95.6725 69.4592 95.7645 69.899C95.8136 70.0876 95.7612 70.2885 95.6261 70.4291C95.4437 70.5976 95.197 70.6791 94.9498 70.6523C94.8979 70.6523 94.8415 70.6478 94.7891 70.6434C94.8583 70.7148 94.9236 70.7857 94.9766 70.8482C95.0497 70.9324 95.1189 71.0128 95.1797 71.0842L95.1803 71.0848C95.6172 71.4469 95.841 72.0055 95.774 72.5692C95.4933 74.3198 94.9543 76.0189 94.1753 77.6111C96.1279 77.2824 98.0263 76.6869 99.817 75.8415C100.584 75.4179 101 75.0217 101.087 74.6244C101.122 74.2143 100.983 73.8086 100.704 73.5056L100.704 73.5055Z" fill="url(#paint13_linear_129_235)"/>
<path d="M99.4744 54.1813C99.2712 53.7556 98.9476 53.399 98.543 53.1562C98.3957 53.0714 98.2411 53.0005 98.081 52.9436C98.0458 52.9325 98.0106 52.9241 97.9744 52.9185C98.1384 51.1831 98.0625 49.4335 97.7495 47.7188C97.6993 47.8259 97.6429 47.9303 97.581 48.0313C97.5748 48.0374 97.5748 48.0436 97.5687 48.0503H97.5681C97.4866 48.226 97.3884 48.3934 97.2746 48.5503C97.2048 48.6574 97.1278 48.7601 97.043 48.8561C96.8795 49.0687 96.6903 49.2601 96.4805 49.4275C96.3767 49.5123 96.2701 49.5932 96.1607 49.6713C96.0508 49.735 95.9465 49.8075 95.8482 49.8873C95.8354 49.9001 95.8203 49.9107 95.8047 49.9186C95.6262 50.0636 95.4253 50.1797 95.211 50.2623C95.2199 50.3041 95.2344 50.3438 95.2545 50.3812C95.2707 50.428 95.2891 50.4738 95.3109 50.519C95.4911 50.9721 95.6144 51.4459 95.6764 51.9303C95.735 52.428 95.7618 52.9286 95.7556 53.4303C95.764 53.6088 95.8443 53.7762 95.9788 53.8945C96.1133 54.0123 96.2902 54.0703 96.4682 54.0553C96.8661 53.9877 97.274 54.0117 97.6608 54.1261C97.961 54.2171 98.2082 54.4303 98.3421 54.7137C98.5207 55.1814 98.5051 55.7015 98.298 56.1573C98.1167 56.6529 97.7818 57.0781 97.3421 57.3699C97.125 57.5061 96.8784 57.5881 96.6234 57.6077C96.6669 57.3577 96.7049 57.1015 96.7294 56.8454V56.8448C96.7623 56.5016 96.5101 56.1964 96.1669 56.1635C96.0017 56.1467 95.8366 56.1964 95.7088 56.3024C95.5804 56.4079 95.5001 56.5608 95.4856 56.726C95.4443 57.1495 95.3734 57.5692 95.2735 57.9827C94.6764 60.4988 92.8891 62.5652 90.4855 63.5201C89.1825 64.1261 87.6786 64.1284 86.3734 63.5262C83.9615 62.5798 82.1675 60.5107 81.5731 57.9888C81.4726 57.5692 81.4018 57.1434 81.3605 56.7137C81.3197 56.3817 81.0256 56.14 80.6919 56.1635H80.673C80.3571 56.1953 80.1155 56.4587 80.1105 56.7762C80.1105 56.8013 80.1166 56.8197 80.1166 56.8448C80.1417 57.101 80.1791 57.3571 80.2226 57.6138H80.2232C79.8415 57.5424 79.4866 57.3694 79.1953 57.1132C78.9034 56.8565 78.6869 56.5267 78.5669 56.1573C78.3632 55.7009 78.3476 55.1819 78.5234 54.7138C78.6607 54.4297 78.9096 54.2149 79.2109 54.12C79.2762 54.0983 79.3426 54.0815 79.4107 54.0698C79.6183 54.0207 79.832 53.9995 80.0457 54.0073C80.2924 54.0692 80.5524 54.0542 80.7907 53.9654C80.9927 53.8438 81.1088 53.6189 81.0915 53.384C81.0217 52.4738 82.2466 45.9297 84.8839 45.2897C85.0212 45.254 85.1423 45.1714 85.2254 45.0564C85.3075 44.9973 85.3778 44.9376 85.4419 44.8991C87.2042 43.7863 89.3421 44.4052 90.3231 44.7367V44.7361C91.3298 45.0386 92.2142 45.653 92.8476 46.4911C93.4816 47.3298 93.832 48.3483 93.8482 49.399C93.9414 49.5781 94.111 49.7053 94.3091 49.7444C94.5078 49.7835 94.7132 49.7299 94.8672 49.5988C95.0044 49.505 95.1484 49.4113 95.2985 49.3052C96.2109 48.6864 97.236 47.9866 97.3861 46.3052H97.3855C97.4168 45.8711 97.4001 45.4353 97.3359 45.005C96.9547 42.3114 94.0233 40.2673 91.2673 39.7176C88.4046 39.1489 82.5363 39.5987 81.6736 43.4614C78.7049 45.1116 78.4983 47.6054 78.9426 52.8989C78.8924 52.9178 78.8366 52.924 78.7925 52.9424H78.7919C78.6334 52.996 78.4805 53.0651 78.336 53.1489C77.1312 53.8899 76.9303 55.3481 77.3985 56.5986C77.6033 57.2236 77.9883 57.7732 78.5056 58.1794C79.0229 58.5851 79.6491 58.829 80.3048 58.8798C80.3734 58.8798 80.4421 58.8675 80.5174 58.8608H80.5168C80.7562 59.6404 81.0989 60.3848 81.5358 61.0734C81.7278 61.3814 81.9409 61.676 82.1731 61.9545C83.0682 63.0354 84.1938 63.9026 85.4672 64.4925C85.4315 64.8887 85.3389 65.2782 85.1921 65.6488C85.1419 65.7698 85.0811 65.887 85.0108 65.9986C84.9901 66.0355 84.975 66.0756 84.9672 66.1175C84.1759 66.4585 83.4532 66.9412 82.8361 67.5422C82.1559 68.2062 81.6977 69.0645 81.5236 69.9986C81.4801 70.1922 81.7859 70.2112 82.1676 70.1671C82.2864 70.1549 82.4176 70.1359 82.5426 70.1108C82.9176 70.0483 83.2736 69.9607 83.3802 69.9484H83.3796C82.9516 70.2949 82.5465 70.6683 82.167 71.0672C81.6793 71.6487 81.4544 71.7983 81.523 72.3485H81.5236C81.8417 74.2129 82.4555 76.0148 83.3422 77.6861C84.0548 77.8049 84.7919 77.9048 85.5296 77.9796C84.9358 76.0482 84.9107 69.936 85.6423 66.9422H85.6418C85.6864 66.9349 85.7305 66.9243 85.7735 66.9109C85.8477 66.9885 85.9269 67.0616 86.0106 67.1297C86.1161 67.2217 86.2294 67.3054 86.3482 67.3797C86.4682 67.4606 86.5932 67.5337 86.7232 67.5984C86.8544 67.6609 86.9855 67.7173 87.1234 67.7669C87.2567 67.8233 87.3946 67.8668 87.5357 67.8986C87.4297 67.9862 87.317 68.08 87.2171 68.1609C87.0279 68.3473 86.8081 68.4996 86.567 68.6107C86.4738 68.652 86.3745 68.6771 86.2735 68.686C85.9308 68.705 85.6691 68.9979 85.6881 69.34C85.7076 69.6826 86.0006 69.9444 86.3426 69.9254C86.5458 69.926 86.7472 69.8869 86.9358 69.8116C86.9777 69.7959 87.0887 69.724 87.13 69.7329C87.1512 69.7373 87.6685 70.306 87.673 70.292C87.2718 71.5912 86.9749 72.9203 86.7857 74.2669C86.5815 75.5219 86.4643 76.7898 86.4358 78.061C87.1044 78.1046 87.7735 78.1297 88.4358 78.1297C89.0982 78.1297 89.7606 78.1046 90.4297 78.061C90.3488 75.4205 89.9308 72.8016 89.1858 70.2669C89.3778 70.1023 89.5497 69.9159 89.6981 69.7111C89.7349 69.725 89.7701 69.7418 89.8047 69.7608C90.062 69.8925 90.3516 69.9488 90.6395 69.9231C90.8717 69.8863 91.0636 69.7223 91.1356 69.4985C91.202 69.3071 91.1663 69.095 91.0413 68.936C90.8756 68.7161 90.6395 68.7116 90.3951 68.6402C90.1139 68.5375 89.8588 68.374 89.6485 68.1614C89.5608 68.0866 89.4732 68.0113 89.3733 67.9365C89.3611 67.9243 89.3421 67.9114 89.3298 67.8991H89.3293C89.6111 67.8322 89.8839 67.7312 90.1418 67.5989C90.4029 67.4756 90.6445 67.3154 90.8605 67.124C90.9442 67.0582 91.0234 66.9873 91.0982 66.9114C91.1412 66.9254 91.1847 66.936 91.2294 66.9427C91.9604 69.9365 91.9291 76.0487 91.3354 77.9801C92.0793 77.9053 92.8103 77.8049 93.5228 77.6866H93.5234C94.4101 76.0153 95.0262 74.2134 95.3481 72.349C95.4106 71.7988 95.1918 71.6492 94.698 71.0677C94.3235 70.6704 93.9229 70.2982 93.4982 69.955C93.6171 69.974 93.9859 70.0549 94.3609 70.1174L94.3604 70.118C94.472 70.1403 94.5847 70.157 94.698 70.1676C94.7957 70.1799 94.8939 70.186 94.9921 70.1866C95.2231 70.1866 95.3794 70.1431 95.3481 69.9991C95.1734 69.0633 94.7125 68.2049 94.0295 67.5427C93.4139 66.9422 92.6935 66.459 91.9045 66.118C91.8916 66.0745 91.8749 66.0326 91.8542 65.993C91.8001 65.9121 91.7538 65.8267 91.717 65.7363C91.6997 65.7067 91.6852 65.6755 91.6729 65.6425C91.5295 65.2698 91.4391 64.8786 91.4045 64.4802C93.7722 63.3909 95.5619 61.3417 96.323 58.849C96.3978 58.8551 96.467 58.868 96.5418 58.868C97.0635 58.8607 97.5725 58.7073 98.0105 58.4238C98.6785 57.9824 99.1902 57.3418 99.4731 56.5929C99.799 55.8223 99.7995 54.9524 99.4742 54.1811L99.4744 54.1813ZM88.4369 66.7622C87.6641 66.7767 86.9319 66.4185 86.4682 65.8001C86.5547 65.5195 86.6211 65.2332 86.668 64.9436C87.2372 65.1199 87.8287 65.2148 88.4247 65.2248C88.8689 65.2181 89.3114 65.1612 89.7434 65.0563C89.8935 65.0189 90.0497 64.9748 90.206 64.9313V64.9374C90.2495 65.2298 90.3165 65.5183 90.4057 65.8001C89.9403 66.4162 89.2093 66.7739 88.437 66.7622L88.4369 66.7622Z" fill="url(#paint14_linear_129_235)"/>
<path d="M32.5001 54.4055H32.5325C32.9008 54.4055 33.1993 54.7738 33.1993 55.0724V55.6109C33.1993 55.9792 32.9008 56.2777 32.5325 56.2777H32.5001C32.1318 56.2777 31.8333 55.9094 31.8333 55.6109V55.0724C31.8333 54.7041 32.1318 54.4055 32.5001 54.4055Z" fill="url(#paint15_linear_129_235)"/>
<path d="M40.12 54.4055H40.1523C40.5206 54.4055 40.8192 54.7738 40.8192 55.0724V55.6109C40.8192 55.9792 40.5207 56.2777 40.1523 56.2777H40.12C39.7517 56.2777 39.4531 55.9094 39.4531 55.6109V55.0724C39.4531 54.7041 39.7517 54.4055 40.12 54.4055Z" fill="url(#paint16_linear_129_235)"/>
<path d="M37.7686 59.5727C37.5515 59.4366 37.2663 59.4935 37.1185 59.7022C37.0911 59.7418 36.8746 59.8858 36.3255 59.8858C35.7764 59.8858 35.5643 59.7413 35.537 59.7033H35.5364C35.4728 59.594 35.3679 59.5147 35.2451 59.484C35.1218 59.4528 34.9918 59.4734 34.8841 59.5398C34.7764 59.6068 34.7005 59.7139 34.6731 59.8378C34.6458 59.9611 34.6698 60.0906 34.7395 60.1966C35.1274 60.6609 35.725 60.8964 36.3255 60.8216C36.9271 60.8969 37.5259 60.6615 37.9154 60.1966C38.0454 59.9834 37.9801 59.7055 37.7686 59.5727L37.7686 59.5727Z" fill="url(#paint17_linear_129_235)"/>
<path d="M41.8288 53.0055C40.8171 52.5044 39.6463 52.4291 38.5788 52.7968C38.3349 52.8844 38.2088 53.1529 38.2958 53.3967C38.3835 53.64 38.6519 53.7667 38.8957 53.6796C39.7116 53.4062 40.6012 53.4598 41.379 53.8275C41.4878 53.8906 41.6179 53.9068 41.7395 53.8727C41.8606 53.8387 41.9633 53.7572 42.0235 53.6467C42.0844 53.5362 42.0978 53.4057 42.0609 53.2851C42.0247 53.1646 41.941 53.0641 41.8293 53.0056L41.8288 53.0055Z" fill="url(#paint18_linear_129_235)"/>
<path d="M47.7929 73.1627C47.524 72.7999 47.2243 72.4439 46.899 72.075C46.899 71.9065 46.899 71.7252 46.9051 71.5003C46.9051 70.8066 46.9112 69.8876 46.9241 68.8317C46.9492 65.5756 46.9866 61.113 46.943 57.4254C46.9241 55.0504 46.8744 53.2128 46.7868 52.1068V52.1063C46.6852 50.8708 46.4358 49.6514 46.0429 48.4751C45.7745 47.6253 45.4207 46.8044 44.9871 46.0254C43.6557 43.7007 42.2058 42.444 40.7623 42.3691H40.7617C40.7383 42.3407 40.7137 42.3133 40.6869 42.2877C40.6395 42.2257 40.5848 42.1688 40.5246 42.1191C40.3683 41.9651 40.2015 41.8234 40.0246 41.6939C40.0061 41.6761 39.9849 41.661 39.9621 41.6504C39.6758 41.4551 39.3722 41.2854 39.0558 41.1442C36.8265 40.1727 34.2829 40.2352 32.1038 41.3139C30.3895 42.1699 28.9565 43.4986 27.9738 45.1432C26.8265 47.0935 26.0955 49.2603 25.8265 51.507C25.7534 52.0293 25.7015 52.555 25.6619 53.0813C25.5492 54.656 25.5308 56.3999 25.5118 58.2437V58.2443C25.5503 61.6857 25.3416 65.126 24.8868 68.5379L24.7495 69.3504C24.4493 71.2131 24.1307 73.1317 24.3622 74.2192C24.7936 76.2695 26.187 76.7505 27.1184 77.0691L27.1999 77.1003H27.1993C28.0297 77.3939 28.8773 77.6355 29.7373 77.8252C30.225 77.9379 30.7686 78.044 31.3997 78.1567C33.0157 78.4391 34.6526 78.5853 36.2932 78.5942C37.936 78.5864 39.5756 78.4402 41.1933 78.1567C41.7619 78.0568 42.306 77.9502 42.8183 77.8319C42.83 77.8263 42.8428 77.8247 42.8557 77.8252C44.1922 77.5501 45.4897 77.1115 46.7184 76.5194C47.4533 76.2209 48.0231 75.6193 48.281 74.8693C48.3859 74.256 48.2062 73.6282 47.7932 73.1629L47.7929 73.1627ZM39.1747 68.7312C38.2433 69.0248 37.2684 69.1537 36.2929 69.1129C35.3013 69.1576 34.3091 69.0175 33.3682 68.7C33.4938 68.4048 33.64 68.1185 33.8057 67.844C34.0887 67.4042 34.3135 66.9293 34.4743 66.4316V66.4065H34.4804C34.568 66.1007 34.6372 65.7893 34.6869 65.4751C35.1936 65.657 35.7242 65.7619 36.2616 65.7876C36.8012 65.7636 37.3336 65.6604 37.843 65.4812C37.8899 65.7943 37.9585 66.1035 38.0495 66.4065C38.2096 66.9154 38.4367 67.4009 38.7241 67.85C38.8955 68.1324 39.0456 68.4271 39.1745 68.7312L39.1747 68.7312ZM31.2807 68.5315C31.6624 68.2044 32.068 67.9059 32.4933 67.6375C32.3359 67.9305 32.1981 68.2335 32.0809 68.5437L32.0619 68.5811V68.5817C31.8393 69.1738 31.6534 69.7787 31.5056 70.3943C31.4179 69.8318 31.3493 69.2129 31.2807 68.5315L31.2807 68.5315ZM40.4994 77.0002C39.1076 77.2189 37.7019 77.3339 36.2929 77.3439C34.7807 77.335 33.2718 77.2033 31.7807 76.9499C32.5474 76.5688 33.2181 76.0203 33.7432 75.3439L33.7868 75.3004C33.8727 75.1977 33.9369 75.0783 33.9742 74.95C34.0948 74.5984 34.0155 74.2089 33.7683 73.9316C33.5831 73.7111 33.3119 73.5817 33.0245 73.575C32.7935 73.5828 32.5658 73.5169 32.3744 73.3875C32.3682 73.3752 32.3554 73.3685 32.3493 73.3624C32.318 73.3311 32.2929 73.2999 32.2616 73.2625C32.3956 72.1168 32.6232 70.9835 32.943 69.8752C34.0222 70.234 35.1561 70.3986 36.2929 70.3629C37.4156 70.4042 38.5373 70.248 39.6054 69.9003C40.231 72.2139 40.5318 74.6034 40.4994 77.0002L40.4994 77.0002ZM42.2058 76.6877C42.0557 76.7189 41.8994 76.744 41.7432 76.7753C41.7555 74.9126 41.5244 70.388 39.9932 67.5627C40.8135 68.0783 41.5652 68.6961 42.2303 69.4003C42.3553 69.5275 42.4457 69.6843 42.4932 69.8562V69.8752C42.511 69.9366 42.5233 69.9991 42.5305 70.0627C42.5808 70.5627 42.6494 71.3813 42.6555 72.3562C42.6924 73.8138 42.5411 75.2692 42.2058 76.6877H42.2058ZM43.3057 57.7505C43.0345 57.7985 42.828 58.0206 42.7995 58.2941C42.7482 58.8125 42.6349 59.322 42.4619 59.8131C41.5367 62.4129 39.1244 63.6445 38.1372 64.0508H38.1367C37.5435 64.317 36.9095 64.4816 36.2617 64.5379C35.6355 64.4827 35.0228 64.322 34.4491 64.0631C33.2705 63.5781 32.2079 62.8499 31.3308 61.9258L31.2493 61.8382C31.1422 61.7249 31.044 61.6038 30.9558 61.4754C30.9307 60.769 30.9184 60.0815 30.9056 59.4129C30.9117 58.7627 30.9178 58.1193 30.9368 57.4754C30.9742 56.1942 31.0557 54.9503 31.193 53.8001V53.8007C32.0066 53.4614 32.914 53.419 33.7555 53.6818C33.8733 53.7282 34.005 53.7248 34.1205 53.6729C34.236 53.6205 34.3253 53.5239 34.3683 53.4051C34.4112 53.2862 34.4045 53.1545 34.3493 53.0407C34.2935 52.9268 34.1947 52.8403 34.0742 52.8007C33.1908 52.5016 32.236 52.486 31.3432 52.7566C31.4855 51.5094 31.8789 50.304 32.4994 49.213C32.6183 49.0317 32.7494 48.8632 32.8806 48.7008C32.8806 48.6946 32.8806 48.6946 32.8867 48.6946V48.6941C33.269 48.2125 33.7199 47.7895 34.2243 47.4379C34.7165 47.088 35.2729 46.8392 35.8622 46.7069C35.9916 46.6745 36.1228 46.6517 36.2556 46.6377C36.6674 46.5836 37.0865 46.6332 37.4743 46.7817C37.5848 46.8246 37.6914 46.8771 37.793 46.9379C38.0357 47.0724 38.264 47.232 38.4743 47.4128C38.543 47.4815 38.7433 47.7002 38.7433 47.7002C38.9743 47.9876 39.5123 47.9625 39.5871 47.9625C42.6183 47.775 43.2433 54.5685 43.4811 56.1935V56.2247L43.4805 56.2253C43.5988 56.2833 43.7327 56.3006 43.8622 56.2755C44.1686 56.2125 44.3801 55.9312 44.3555 55.6193C44.5235 55.6198 44.6903 55.6349 44.8555 55.6628C44.9448 55.6801 45.0324 55.703 45.1183 55.7314C45.8415 55.9747 46.3142 56.67 46.2746 57.4317C46.2712 57.776 46.2059 58.117 46.0809 58.4378C45.8962 58.9328 45.567 59.3608 45.1351 59.665C44.7037 59.9696 44.1903 60.1365 43.6619 60.1443C43.7328 59.9412 43.7931 59.7347 43.8433 59.5255C43.9387 59.1644 44.0057 58.7967 44.0431 58.4256C44.0609 58.2604 44.0118 58.0952 43.9075 57.9663C43.8031 57.8374 43.6519 57.7554 43.4873 57.7381C43.4264 57.7325 43.365 57.7364 43.3059 57.7504L43.3057 57.7505ZM47.0618 74.6062C47.0244 74.7686 46.8369 75.0437 46.1366 75.4187C45.3129 75.8183 44.4496 76.1325 43.5619 76.3562C43.8203 75.0393 43.9352 73.6984 43.9056 72.3562L43.8621 70.9812C44.4229 71.3992 44.9519 71.8585 45.443 72.3562C45.568 72.4812 45.693 72.6062 45.8118 72.7374C45.8179 72.7435 45.8241 72.7497 45.8241 72.7564H45.8308C46.1717 73.1247 46.4932 73.5103 46.7928 73.9126C46.9703 74.0996 47.0668 74.349 47.0618 74.6063L47.0618 74.6062Z" fill="url(#paint19_linear_129_235)"/>
<defs>
<radialGradient id="paint0_radial_129_235" cx="0" cy="0" r="1" gradientUnits="userSpaceOnUse" gradientTransform="translate(62 62) scale(99.9144)">
<stop offset="0.270833" stop-color="white"/>
<stop offset="1" stop-color="#E6B7ED" stop-opacity="0"/>
</radialGradient>
<linearGradient id="paint1_linear_129_235" x1="57.0529" y1="52.6687" x2="57.0529" y2="55.068" gradientUnits="userSpaceOnUse">
<stop stop-color="#F43A63"/>
<stop offset="0.96875" stop-color="#9855E4"/>
</linearGradient>
<linearGradient id="paint2_linear_129_235" x1="66.4105" y1="52.6724" x2="66.4105" y2="55.0658" gradientUnits="userSpaceOnUse">
<stop stop-color="#F43A63"/>
<stop offset="0.96875" stop-color="#9855E4"/>
</linearGradient>
<linearGradient id="paint3_linear_129_235" x1="67.0531" y1="50.4377" x2="67.0531" y2="52.1948" gradientUnits="userSpaceOnUse">
<stop stop-color="#F43A63"/>
<stop offset="0.96875" stop-color="#9855E4"/>
</linearGradient>
<linearGradient id="paint4_linear_129_235" x1="56.5684" y1="50.4399" x2="56.5684" y2="52.183" gradientUnits="userSpaceOnUse">
<stop stop-color="#F43A63"/>
<stop offset="0.96875" stop-color="#9855E4"/>
</linearGradient>
<linearGradient id="paint5_linear_129_235" x1="61.7958" y1="34.6729" x2="61.7958" y2="85.6316" gradientUnits="userSpaceOnUse">
<stop stop-color="#F43A63"/>
<stop offset="0.96875" stop-color="#9855E4"/>
</linearGradient>
<linearGradient id="paint6_linear_129_235" x1="61.7805" y1="51.925" x2="61.7805" y2="57.5022" gradientUnits="userSpaceOnUse">
<stop stop-color="#F43A63"/>
<stop offset="0.96875" stop-color="#9855E4"/>
</linearGradient>
<linearGradient id="paint7_linear_129_235" x1="92.3458" y1="53.3127" x2="92.3458" y2="55.3736" gradientUnits="userSpaceOnUse">
<stop stop-color="#F43A63"/>
<stop offset="0.96875" stop-color="#9855E4"/>
</linearGradient>
<linearGradient id="paint8_linear_129_235" x1="84.5258" y1="53.3127" x2="84.5258" y2="55.3736" gradientUnits="userSpaceOnUse">
<stop stop-color="#F43A63"/>
<stop offset="0.96875" stop-color="#9855E4"/>
</linearGradient>
<linearGradient id="paint9_linear_129_235" x1="88.437" y1="58.5869" x2="88.437" y2="60.0073" gradientUnits="userSpaceOnUse">
<stop stop-color="#F43A63"/>
<stop offset="0.96875" stop-color="#9855E4"/>
</linearGradient>
<linearGradient id="paint10_linear_129_235" x1="92.643" y1="51.6895" x2="92.643" y2="53.1206" gradientUnits="userSpaceOnUse">
<stop stop-color="#F43A63"/>
<stop offset="0.96875" stop-color="#9855E4"/>
</linearGradient>
<linearGradient id="paint11_linear_129_235" x1="84.2285" y1="51.6907" x2="84.2285" y2="53.1225" gradientUnits="userSpaceOnUse">
<stop stop-color="#F43A63"/>
<stop offset="0.96875" stop-color="#9855E4"/>
</linearGradient>
<linearGradient id="paint12_linear_129_235" x1="79.2411" y1="68.6189" x2="79.2411" y2="77.6105" gradientUnits="userSpaceOnUse">
<stop stop-color="#F43A63"/>
<stop offset="0.96875" stop-color="#9855E4"/>
</linearGradient>
<linearGradient id="paint13_linear_129_235" x1="97.6339" y1="68.6194" x2="97.6339" y2="77.6111" gradientUnits="userSpaceOnUse">
<stop stop-color="#F43A63"/>
<stop offset="0.96875" stop-color="#9855E4"/>
</linearGradient>
<linearGradient id="paint14_linear_129_235" x1="88.4417" y1="39.5156" x2="88.4417" y2="78.1297" gradientUnits="userSpaceOnUse">
<stop stop-color="#F43A63"/>
<stop offset="0.96875" stop-color="#9855E4"/>
</linearGradient>
<linearGradient id="paint15_linear_129_235" x1="32.5163" y1="54.4055" x2="32.5163" y2="56.2777" gradientUnits="userSpaceOnUse">
<stop stop-color="#F43A63"/>
<stop offset="0.96875" stop-color="#9855E4"/>
</linearGradient>
<linearGradient id="paint16_linear_129_235" x1="40.1362" y1="54.4055" x2="40.1362" y2="56.2777" gradientUnits="userSpaceOnUse">
<stop stop-color="#F43A63"/>
<stop offset="0.96875" stop-color="#9855E4"/>
</linearGradient>
<linearGradient id="paint17_linear_129_235" x1="36.3222" y1="59.4697" x2="36.3222" y2="60.8355" gradientUnits="userSpaceOnUse">
<stop stop-color="#F43A63"/>
<stop offset="0.96875" stop-color="#9855E4"/>
</linearGradient>
<linearGradient id="paint18_linear_129_235" x1="40.1748" y1="52.5667" x2="40.1748" y2="53.8902" gradientUnits="userSpaceOnUse">
<stop stop-color="#F43A63"/>
<stop offset="0.96875" stop-color="#9855E4"/>
</linearGradient>
<linearGradient id="paint19_linear_129_235" x1="36.2965" y1="40.4578" x2="36.2965" y2="78.5942" gradientUnits="userSpaceOnUse">
<stop stop-color="#F43A63"/>
<stop offset="0.96875" stop-color="#9855E4"/>
</linearGradient>
</defs>
</svg>
