<svg width="124" height="124" viewBox="0 0 124 124" fill="none" xmlns="http://www.w3.org/2000/svg">
<circle cx="62" cy="62" r="62" fill="url(#paint0_radial_129_239)"/>
<path d="M72.1868 29.2216L70.981 31.4273H70.9804C70.9412 31.4992 70.8825 31.558 70.8106 31.5977L68.6065 32.8041C68.4682 32.8786 68.3822 33.0229 68.3822 33.1797C68.3822 33.3365 68.4682 33.4807 68.6065 33.5553L70.8123 34.7611C70.8836 34.8008 70.9429 34.8601 70.9827 34.9315L72.1884 37.1372C72.263 37.2755 72.4073 37.3615 72.5641 37.3615C72.7208 37.3615 72.8651 37.2755 72.9397 37.1372L74.146 34.9315C74.1857 34.8596 74.2445 34.8008 74.3164 34.7611L76.5216 33.5553C76.6593 33.4807 76.7454 33.3365 76.7454 33.1797C76.7454 33.0229 76.6594 32.8786 76.5216 32.8041L74.3164 31.5977C74.2445 31.5585 74.1852 31.4992 74.146 31.4273L72.9353 29.2216C72.8602 29.0849 72.717 29 72.5608 29C72.4051 29 72.2614 29.0849 72.1868 29.2216H72.1868Z" fill="url(#paint1_linear_129_239)"/>
<path d="M78.8427 40.0167L77.9951 41.5627C77.9673 41.6144 77.9248 41.6569 77.8731 41.6847L76.3276 42.5301C76.2313 42.5829 76.1714 42.6836 76.1714 42.7935C76.1714 42.903 76.2313 43.0037 76.3276 43.0565L77.8731 43.9019C77.9248 43.9297 77.9673 43.9721 77.9951 44.0238L78.8427 45.5628C78.8949 45.6597 78.9956 45.7196 79.1056 45.7196C79.2155 45.7196 79.3163 45.6597 79.3685 45.5628L80.2145 44.0173C80.2422 43.9656 80.2847 43.9231 80.3364 43.8953L81.8819 43.0499C81.9783 42.9971 82.0376 42.8964 82.0376 42.7865C82.0376 42.677 81.9783 42.5763 81.8819 42.5235L80.3364 41.6781C80.2847 41.6504 80.2422 41.6079 80.2145 41.5562L79.3691 40.0107L79.3685 40.0101C79.3152 39.9149 79.2134 39.8561 79.104 39.8577C78.994 39.8588 78.8938 39.9198 78.8427 40.0167L78.8427 40.0167Z" fill="url(#paint2_linear_129_239)"/>
<path d="M38.1818 61.5702C38.3217 61.0259 38.6473 60.5468 39.1018 60.2164C39.5564 59.8854 40.1116 59.7232 40.6728 59.7575L47.668 60.2186C48.3376 60.2578 48.9582 60.5827 49.3714 61.1108C49.5505 61.3427 49.6849 61.6056 49.7699 61.886C52.3606 60.1222 54.8533 58.2191 57.2365 56.1842C60.8512 52.9812 65.4673 47.846 66.9094 41.5737C67.0188 40.9597 67.358 40.411 67.8577 40.038C68.358 39.6657 68.9813 39.498 69.6008 39.5693C71.1484 39.7255 72.8475 41.2154 72.9221 44.1187C72.9966 47.022 71.485 50.3376 70.0238 53.5472C69.5834 54.5146 69.167 55.428 68.793 56.3312C68.7728 56.378 68.7777 56.3873 68.793 56.4112C69.174 57.1429 72.4991 57.8702 74.9276 58.4014C77.6391 58.9942 80.442 59.6066 82.0921 60.5283L82.0915 60.5278C83.1982 61.2061 83.8689 62.4134 83.8597 63.7113C83.9811 64.8877 83.5064 66.0461 82.5951 66.7995C82.0388 67.1686 81.4149 67.4255 80.7595 67.5551L80.5521 67.6068C82.3447 68.6433 83.3099 70.3603 83.0883 72.1665V72.1671C82.9957 72.909 82.6958 73.6097 82.2216 74.1883C81.748 74.7675 81.1204 75.2003 80.4116 75.4377C80.6109 76.3865 80.484 77.3745 80.0518 78.2423C79.4252 79.3147 78.3827 80.0796 77.1721 80.3544C76.791 81.6582 74.9908 83.6005 73.1138 83.8776C72.5046 83.963 71.89 84.0039 71.2744 83.9995C68.3184 83.9995 64.3238 83.1699 58.9394 81.448C56.6785 80.7272 52.359 79.9907 49.8608 80.2498C49.8673 80.2944 49.8744 80.3478 49.8809 80.3903L49.8946 80.4795C50.011 81.1752 49.8129 81.8873 49.354 82.4235C48.8951 82.9597 48.2228 83.2656 47.5167 83.2585L40.3494 83.6483L40.3499 83.6478C39.8584 83.669 39.3744 83.5236 38.9754 83.2362C38.5764 82.9488 38.2862 82.5356 38.1507 82.0625C37.1926 77.3515 37.3488 64.9492 38.1817 61.5711L38.1818 61.5702ZM49.7052 79.0445C52.4673 78.7511 56.9899 79.5486 59.3124 80.2895C65.6401 82.3113 70.1002 83.0904 72.938 82.6712C74.5537 82.4327 76.0382 80.4186 76.0284 79.9036C76.0099 79.6075 76.2075 79.3413 76.496 79.2727C77.5124 79.1241 78.415 78.5427 78.9708 77.6783C79.3235 76.9096 79.3709 76.0359 79.1036 75.2335C79.0416 75.0686 79.0541 74.8846 79.1379 74.7289C79.2217 74.5737 79.3687 74.4627 79.5407 74.424C80.1368 74.3266 80.6861 74.0397 81.1069 73.6064C81.5276 73.1731 81.7982 72.6162 81.8783 72.0174C82.0116 70.927 81.501 69.4333 79.6665 68.5132C79.2664 68.3145 79.0306 67.8888 79.0742 67.444C79.1085 67.0243 79.397 66.6689 79.8004 66.5491C80.0443 66.4751 80.2615 66.4212 80.4711 66.3705C80.9904 66.2731 81.4852 66.0728 81.9257 65.781C82.4624 65.2513 82.7265 64.5044 82.641 63.7554C82.653 62.886 82.2218 62.0705 81.4962 61.591C80.0029 60.7576 77.2892 60.1642 74.6644 59.5899C70.7514 58.7364 68.3235 58.1506 67.7078 56.9721C67.5254 56.6275 67.5096 56.2181 67.6664 55.861C68.0486 54.9399 68.489 53.9742 68.9147 53.0401C70.3169 49.959 71.7693 46.7721 71.703 44.1477C71.6502 42.079 70.5446 40.8879 69.4792 40.7807C68.8042 40.6942 68.1863 41.1705 68.0981 41.8455C66.5809 48.4335 61.7938 53.775 58.0452 57.0957V57.0951C55.4267 59.3286 52.682 61.4098 49.8241 63.3283C49.0489 68.1128 49.2786 75.2087 49.7054 79.0438L49.7052 79.0445Z" fill="url(#paint3_linear_129_239)"/>
<defs>
<radialGradient id="paint0_radial_129_239" cx="0" cy="0" r="1" gradientUnits="userSpaceOnUse" gradientTransform="translate(62 62) scale(99.9144)">
<stop offset="0.270833" stop-color="white"/>
<stop offset="1" stop-color="#E6B7ED" stop-opacity="0"/>
</radialGradient>
<linearGradient id="paint1_linear_129_239" x1="72.5638" y1="29" x2="72.5638" y2="37.3615" gradientUnits="userSpaceOnUse">
<stop stop-color="#F43A63"/>
<stop offset="0.96875" stop-color="#9855E4"/>
</linearGradient>
<linearGradient id="paint2_linear_129_239" x1="79.1045" y1="39.8577" x2="79.1045" y2="45.7196" gradientUnits="userSpaceOnUse">
<stop stop-color="#F43A63"/>
<stop offset="0.96875" stop-color="#9855E4"/>
</linearGradient>
<linearGradient id="paint3_linear_129_239" x1="60.6856" y1="39.5532" x2="60.6856" y2="83.9998" gradientUnits="userSpaceOnUse">
<stop stop-color="#F43A63"/>
<stop offset="0.96875" stop-color="#9855E4"/>
</linearGradient>
</defs>
</svg>
