<svg width="124" height="124" viewBox="0 0 124 124" fill="none" xmlns="http://www.w3.org/2000/svg">
<circle cx="62" cy="62" r="62" fill="url(#paint0_radial_129_233)"/>
<path d="M56.1814 43.7793L61.2313 46.6955C62.1042 47.1981 63.2186 46.8996 63.7225 46.0298C64.2251 45.157 63.9266 44.0425 63.0538 43.5386L58.0039 40.6224C57.131 40.1198 56.0165 40.4183 55.5126 41.2912C55.0101 42.1627 55.3081 43.278 56.1814 43.7793V43.7793Z" fill="url(#paint1_linear_129_233)"/>
<path d="M47.1788 71.9463L44.2599 70.2592L41.3411 68.5747C41.3411 68.5747 39.1704 75.1094 40.8897 76.1013C42.6064 77.0918 47.1789 71.9463 47.1789 71.9463H47.1788Z" fill="url(#paint2_linear_129_233)"/>
<path d="M58.5492 39.6736L63.6022 42.5899C64.4751 43.0942 65.5895 42.7971 66.0903 41.9242C66.596 41.0513 66.2975 39.9369 65.4247 39.433L65.0689 39.2289L66.846 36.1513C67.2502 35.4529 67.0091 34.5611 66.3152 34.1582L64.4984 33.1103C63.8001 32.7074 62.9082 32.9485 62.5067 33.6455L60.7297 36.7217L60.3739 36.5159C59.501 36.0133 58.3866 36.3118 57.8857 37.1846C57.3779 38.0571 57.6759 39.1724 58.5492 39.6737L58.5492 39.6736Z" fill="url(#paint3_linear_129_233)"/>
<path d="M48.182 70.9474C54.9826 61.907 58.3383 55.6271 59.9609 51.9569L60.9634 52.5362C61.5779 52.8902 61.1957 53.5872 61.1926 53.5943L56.1837 62.272C55.7825 62.9685 56.0206 63.8608 56.7171 64.262C57.4154 64.6649 58.3073 64.4264 58.7088 63.7299L63.7178 55.0522C64.6303 53.4708 64.3954 51.1516 62.4169 50.0111L61.0471 49.2189C61.3085 48.4575 61.3967 48.0577 61.3967 48.0577L58.156 46.1881L54.9123 44.3171C54.9123 44.3171 49.2624 49.4274 41.699 67.2068L44.9397 69.0778L48.182 70.9474Z" fill="url(#paint4_linear_129_233)"/>
<path d="M87.7125 77.105C80.7338 77.5476 77.211 75.5294 74.094 73.7498C72.3981 72.7826 70.796 71.8669 68.8439 71.4247C67.621 71.1501 66.6934 71.2585 66.0277 71.7642C65.0402 72.5123 64.9768 73.7894 64.9168 75.0243C64.811 77.1174 64.6492 78.2107 62.3153 78.2694C58.003 78.3738 55.7617 77.8827 54.6049 77.355C57.0477 76.4526 58.9085 75.362 59.2612 74.0791C59.3992 73.5766 59.4565 72.5886 58.2675 71.6245C57.2518 70.7895 55.4999 71.0011 53.8127 72.1566C52.5149 73.0445 51.198 74.5949 51.3405 76.2631C48.5759 77.0302 45.1206 77.7668 41.555 78.2945C41.0096 78.377 40.6336 78.884 40.7143 79.4293C40.7861 79.9262 41.2142 80.2819 41.6991 80.2819C41.7476 80.2819 41.7992 80.2788 41.849 80.27C44.349 79.901 48.5557 79.1882 52.2152 78.1283C53.7216 79.685 57.1522 80.4079 62.3653 80.2656C66.6627 80.1554 66.8174 77.0043 66.9127 75.1227C66.9466 74.454 66.9933 73.5397 67.2376 73.3545C67.2772 73.3236 67.5298 73.1737 68.4032 73.3734C70.0655 73.7482 71.475 74.5536 73.1048 75.4856C76.3 77.308 80.273 79.5744 87.8394 79.0996C88.3905 79.0656 88.8093 78.5895 88.7758 78.0385C88.7374 77.49 88.2582 77.0889 87.7129 77.1052L87.7125 77.105ZM54.9444 73.807C55.6969 73.2895 56.3537 73.1087 56.7272 73.1087C56.8625 73.1087 56.9595 73.1338 57.008 73.1748C57.3003 73.4129 57.3356 73.5438 57.3356 73.5438C57.2606 74.1143 55.7512 74.8712 53.3935 75.6471C53.5716 75.0502 54.1403 74.3581 54.9443 73.807L54.9444 73.807Z" fill="url(#paint5_linear_129_233)"/>
<defs>
<radialGradient id="paint0_radial_129_233" cx="0" cy="0" r="1" gradientUnits="userSpaceOnUse" gradientTransform="translate(62 62) scale(99.9144)">
<stop offset="0.270833" stop-color="white"/>
<stop offset="1" stop-color="#C8B7ED" stop-opacity="0"/>
</radialGradient>
<linearGradient id="paint1_linear_129_233" x1="59.6175" y1="40.3784" x2="59.6175" y2="46.9396" gradientUnits="userSpaceOnUse">
<stop stop-color="#F43A63"/>
<stop offset="0.96875" stop-color="#9855E4"/>
</linearGradient>
<linearGradient id="paint2_linear_129_233" x1="43.7031" y1="68.5747" x2="43.7031" y2="76.2279" gradientUnits="userSpaceOnUse">
<stop stop-color="#F43A63"/>
<stop offset="0.96875" stop-color="#9855E4"/>
</linearGradient>
<linearGradient id="paint3_linear_129_233" x1="62.3401" y1="32.915" x2="62.3401" y2="42.8354" gradientUnits="userSpaceOnUse">
<stop stop-color="#F43A63"/>
<stop offset="0.96875" stop-color="#9855E4"/>
</linearGradient>
<linearGradient id="paint4_linear_129_233" x1="52.9642" y1="44.3171" x2="52.9642" y2="70.9474" gradientUnits="userSpaceOnUse">
<stop stop-color="#F43A63"/>
<stop offset="0.96875" stop-color="#9855E4"/>
</linearGradient>
<linearGradient id="paint5_linear_129_233" x1="64.7405" y1="71.1182" x2="64.7405" y2="80.2832" gradientUnits="userSpaceOnUse">
<stop stop-color="#F43A63"/>
<stop offset="0.96875" stop-color="#9855E4"/>
</linearGradient>
</defs>
</svg>
