<svg width="124" height="124" viewBox="0 0 124 124" fill="none" xmlns="http://www.w3.org/2000/svg">
<circle cx="62" cy="62" r="62" fill="url(#paint0_radial_129_236)"/>
<path d="M69.9711 74.4768H35.6863C35.0528 74.4768 34.5598 74.9699 34.5598 75.6033V79.8977C34.5598 80.5312 35.0529 81.0243 35.6863 81.0243H70.7455C70.2525 79.4052 70.0413 77.7155 70.0413 75.9555C69.9711 75.4624 69.9711 74.9699 69.9711 74.4768L69.9711 74.4768Z" fill="url(#paint1_linear_129_236)"/>
<path d="M80.6719 59.6225V50.9634H74.1951V64.4802C75.8844 62.4388 78.1373 60.749 80.6719 59.6225Z" fill="url(#paint2_linear_129_236)"/>
<path d="M62.72 50.9634H69.1968V71.309H62.72V50.9634Z" fill="url(#paint3_linear_129_236)"/>
<path d="M51.2446 50.9634H57.7214V71.309H51.2446V50.9634Z" fill="url(#paint4_linear_129_236)"/>
<path d="M39.8398 50.9634H46.3166V71.309H39.8398V50.9634Z" fill="url(#paint5_linear_129_236)"/>
<path d="M35.6871 47.7953H84.8263C85.4598 47.7953 85.9528 47.3022 85.9528 46.6688V41.952C85.9528 41.5296 85.7416 41.1775 85.3193 40.9664L60.7497 28.9277C60.4683 28.7868 60.1162 28.7868 59.7641 28.9277L35.1945 40.9664C34.8424 41.1775 34.561 41.5296 34.561 41.952V46.6688C34.561 47.3022 35.0541 47.7953 35.6875 47.7953H35.6871ZM60.2567 35.2641C62.2279 35.2641 63.847 36.8831 63.847 38.8543C63.847 40.8255 62.2279 42.4446 60.2567 42.4446C58.2855 42.4446 56.6664 40.8255 56.6664 38.8543C56.6664 36.8831 58.2855 35.2641 60.2567 35.2641Z" fill="url(#paint6_linear_129_236)"/>
<path d="M87.7824 62.2976C80.2493 62.2976 74.1248 68.4223 74.1248 75.9552C74.1248 83.4881 80.2494 89.6128 87.7824 89.6128C95.3153 89.6128 101.44 83.4881 101.44 75.9552C101.44 68.4223 95.3153 62.2976 87.7824 62.2976ZM94.6814 74.1953L87.7121 81.5167C87.2898 81.939 86.7967 82.1502 86.1633 82.1502C85.6 82.1502 85.0368 81.939 84.6145 81.5167L80.6722 77.3632C79.8978 76.5186 79.8978 75.1809 80.7424 74.4064C81.5871 73.632 82.9247 73.632 83.6992 74.4766L86.0927 77.011L91.5136 71.3088C92.2881 70.4641 93.6258 70.4641 94.4704 71.2385C95.3858 72.013 95.456 73.3502 94.6816 74.1953H94.6814Z" fill="url(#paint7_linear_129_236)"/>
<defs>
<radialGradient id="paint0_radial_129_236" cx="0" cy="0" r="1" gradientUnits="userSpaceOnUse" gradientTransform="translate(62 62) scale(99.9144)">
<stop offset="0.270833" stop-color="white"/>
<stop offset="1" stop-color="#E6B7ED" stop-opacity="0"/>
</radialGradient>
<linearGradient id="paint1_linear_129_236" x1="52.6527" y1="74.4768" x2="52.6527" y2="81.0243" gradientUnits="userSpaceOnUse">
<stop stop-color="#F43A63"/>
<stop offset="0.96875" stop-color="#9855E4"/>
</linearGradient>
<linearGradient id="paint2_linear_129_236" x1="77.4335" y1="50.9634" x2="77.4335" y2="64.4802" gradientUnits="userSpaceOnUse">
<stop stop-color="#F43A63"/>
<stop offset="0.96875" stop-color="#9855E4"/>
</linearGradient>
<linearGradient id="paint3_linear_129_236" x1="65.9584" y1="50.9634" x2="65.9584" y2="71.309" gradientUnits="userSpaceOnUse">
<stop stop-color="#F43A63"/>
<stop offset="0.96875" stop-color="#9855E4"/>
</linearGradient>
<linearGradient id="paint4_linear_129_236" x1="54.483" y1="50.9634" x2="54.483" y2="71.309" gradientUnits="userSpaceOnUse">
<stop stop-color="#F43A63"/>
<stop offset="0.96875" stop-color="#9855E4"/>
</linearGradient>
<linearGradient id="paint5_linear_129_236" x1="43.0782" y1="50.9634" x2="43.0782" y2="71.309" gradientUnits="userSpaceOnUse">
<stop stop-color="#F43A63"/>
<stop offset="0.96875" stop-color="#9855E4"/>
</linearGradient>
<linearGradient id="paint6_linear_129_236" x1="60.2569" y1="28.822" x2="60.2569" y2="47.7953" gradientUnits="userSpaceOnUse">
<stop stop-color="#F43A63"/>
<stop offset="0.96875" stop-color="#9855E4"/>
</linearGradient>
<linearGradient id="paint7_linear_129_236" x1="87.7824" y1="62.2976" x2="87.7824" y2="89.6128" gradientUnits="userSpaceOnUse">
<stop stop-color="#F43A63"/>
<stop offset="0.96875" stop-color="#9855E4"/>
</linearGradient>
</defs>
</svg>
